ISO-10303-21;
HEADER;
/* Generated by software containing ST-Developer
 * from STEP Tools, Inc. (www.steptools.com) 
 */

FILE_DESCRIPTION(
/* description */ (''),
/* implementation_level */ '2;1');

FILE_NAME(
/* name */ 'Mold.stp',
/* time_stamp */ '2025-01-23T00:42:18Z',
/* author */ ('Teamaerosal'),
/* organization */ (''),
/* preprocessor_version */ 'ST-DEVELOPER v20',
/* originating_system */ 'Autodesk Inventor 2025',
/* authorisation */ '');

FILE_SCHEMA (('AUTOMOTIVE_DESIGN { 1 0 10303 214 3 1 1 }'));
ENDSEC;

DATA;
#10=MECHANICAL_DESIGN_GEOMETRIC_PRESENTATION_REPRESENTATION('',(#14,#15,
#16,#17,#18),#2034);
#11=SHAPE_REPRESENTATION_RELATIONSHIP('SRR','None',#2041,#12);
#12=ADVANCED_BREP_SHAPE_REPRESENTATION('',(#13),#2033);
#13=MANIFOLD_SOLID_BREP('Solid1',#1225);
#14=STYLED_ITEM('',(#2051),#1176);
#15=STYLED_ITEM('',(#2052),#1190);
#16=STYLED_ITEM('',(#2053),#1204);
#17=STYLED_ITEM('',(#2054),#1218);
#18=STYLED_ITEM('',(#2050),#13);
#19=CYLINDRICAL_SURFACE('',#1269,0.2);
#20=CYLINDRICAL_SURFACE('',#1272,0.2);
#21=CYLINDRICAL_SURFACE('',#1275,0.2);
#22=CYLINDRICAL_SURFACE('',#1278,0.2);
#23=CYLINDRICAL_SURFACE('',#1287,0.2);
#24=CYLINDRICAL_SURFACE('',#1290,0.2);
#25=CYLINDRICAL_SURFACE('',#1293,0.2);
#26=CYLINDRICAL_SURFACE('',#1296,0.2);
#27=CYLINDRICAL_SURFACE('',#1305,0.2);
#28=CYLINDRICAL_SURFACE('',#1308,0.2);
#29=CYLINDRICAL_SURFACE('',#1311,0.2);
#30=CYLINDRICAL_SURFACE('',#1314,0.2);
#31=CYLINDRICAL_SURFACE('',#1323,0.2);
#32=CYLINDRICAL_SURFACE('',#1326,0.2);
#33=CYLINDRICAL_SURFACE('',#1329,0.2);
#34=CYLINDRICAL_SURFACE('',#1332,0.2);
#35=FACE_BOUND('',#144,.T.);
#36=FACE_BOUND('',#145,.T.);
#37=FACE_BOUND('',#146,.T.);
#38=FACE_BOUND('',#147,.T.);
#39=FACE_BOUND('',#152,.T.);
#40=FACE_BOUND('',#164,.T.);
#41=FACE_BOUND('',#179,.T.);
#42=FACE_BOUND('',#194,.T.);
#43=FACE_BOUND('',#209,.T.);
#44=CIRCLE('',#1249,0.2);
#45=CIRCLE('',#1250,0.2);
#46=CIRCLE('',#1251,0.2);
#47=CIRCLE('',#1252,0.2);
#48=CIRCLE('',#1253,0.2);
#49=CIRCLE('',#1254,0.2);
#50=CIRCLE('',#1255,0.2);
#51=CIRCLE('',#1256,0.2);
#52=CIRCLE('',#1257,0.2);
#53=CIRCLE('',#1258,0.2);
#54=CIRCLE('',#1259,0.2);
#55=CIRCLE('',#1260,0.2);
#56=CIRCLE('',#1261,0.2);
#57=CIRCLE('',#1262,0.2);
#58=CIRCLE('',#1263,0.2);
#59=CIRCLE('',#1264,0.2);
#60=CIRCLE('',#1270,0.2);
#61=CIRCLE('',#1273,0.2);
#62=CIRCLE('',#1276,0.2);
#63=CIRCLE('',#1279,0.2);
#64=CIRCLE('',#1288,0.2);
#65=CIRCLE('',#1291,0.2);
#66=CIRCLE('',#1294,0.2);
#67=CIRCLE('',#1297,0.2);
#68=CIRCLE('',#1306,0.2);
#69=CIRCLE('',#1309,0.2);
#70=CIRCLE('',#1312,0.2);
#71=CIRCLE('',#1315,0.2);
#72=CIRCLE('',#1324,0.2);
#73=CIRCLE('',#1327,0.2);
#74=CIRCLE('',#1330,0.2);
#75=CIRCLE('',#1333,0.2);
#76=FACE_OUTER_BOUND('',#143,.T.);
#77=FACE_OUTER_BOUND('',#148,.T.);
#78=FACE_OUTER_BOUND('',#149,.T.);
#79=FACE_OUTER_BOUND('',#150,.T.);
#80=FACE_OUTER_BOUND('',#151,.T.);
#81=FACE_OUTER_BOUND('',#153,.T.);
#82=FACE_OUTER_BOUND('',#154,.T.);
#83=FACE_OUTER_BOUND('',#155,.T.);
#84=FACE_OUTER_BOUND('',#156,.T.);
#85=FACE_OUTER_BOUND('',#157,.T.);
#86=FACE_OUTER_BOUND('',#158,.T.);
#87=FACE_OUTER_BOUND('',#159,.T.);
#88=FACE_OUTER_BOUND('',#160,.T.);
#89=FACE_OUTER_BOUND('',#161,.T.);
#90=FACE_OUTER_BOUND('',#162,.T.);
#91=FACE_OUTER_BOUND('',#163,.T.);
#92=FACE_OUTER_BOUND('',#165,.T.);
#93=FACE_OUTER_BOUND('',#166,.T.);
#94=FACE_OUTER_BOUND('',#167,.T.);
#95=FACE_OUTER_BOUND('',#168,.T.);
#96=FACE_OUTER_BOUND('',#169,.T.);
#97=FACE_OUTER_BOUND('',#170,.T.);
#98=FACE_OUTER_BOUND('',#171,.T.);
#99=FACE_OUTER_BOUND('',#172,.T.);
#100=FACE_OUTER_BOUND('',#173,.T.);
#101=FACE_OUTER_BOUND('',#174,.T.);
#102=FACE_OUTER_BOUND('',#175,.T.);
#103=FACE_OUTER_BOUND('',#176,.T.);
#104=FACE_OUTER_BOUND('',#177,.T.);
#105=FACE_OUTER_BOUND('',#178,.T.);
#106=FACE_OUTER_BOUND('',#180,.T.);
#107=FACE_OUTER_BOUND('',#181,.T.);
#108=FACE_OUTER_BOUND('',#182,.T.);
#109=FACE_OUTER_BOUND('',#183,.T.);
#110=FACE_OUTER_BOUND('',#184,.T.);
#111=FACE_OUTER_BOUND('',#185,.T.);
#112=FACE_OUTER_BOUND('',#186,.T.);
#113=FACE_OUTER_BOUND('',#187,.T.);
#114=FACE_OUTER_BOUND('',#188,.T.);
#115=FACE_OUTER_BOUND('',#189,.T.);
#116=FACE_OUTER_BOUND('',#190,.T.);
#117=FACE_OUTER_BOUND('',#191,.T.);
#118=FACE_OUTER_BOUND('',#192,.T.);
#119=FACE_OUTER_BOUND('',#193,.T.);
#120=FACE_OUTER_BOUND('',#195,.T.);
#121=FACE_OUTER_BOUND('',#196,.T.);
#122=FACE_OUTER_BOUND('',#197,.T.);
#123=FACE_OUTER_BOUND('',#198,.T.);
#124=FACE_OUTER_BOUND('',#199,.T.);
#125=FACE_OUTER_BOUND('',#200,.T.);
#126=FACE_OUTER_BOUND('',#201,.T.);
#127=FACE_OUTER_BOUND('',#202,.T.);
#128=FACE_OUTER_BOUND('',#203,.T.);
#129=FACE_OUTER_BOUND('',#204,.T.);
#130=FACE_OUTER_BOUND('',#205,.T.);
#131=FACE_OUTER_BOUND('',#206,.T.);
#132=FACE_OUTER_BOUND('',#207,.T.);
#133=FACE_OUTER_BOUND('',#208,.T.);
#134=FACE_OUTER_BOUND('',#210,.T.);
#135=FACE_OUTER_BOUND('',#211,.T.);
#136=FACE_OUTER_BOUND('',#212,.T.);
#137=FACE_OUTER_BOUND('',#213,.T.);
#138=FACE_OUTER_BOUND('',#214,.T.);
#139=FACE_OUTER_BOUND('',#215,.T.);
#140=FACE_OUTER_BOUND('',#216,.T.);
#141=FACE_OUTER_BOUND('',#217,.T.);
#142=FACE_OUTER_BOUND('',#218,.T.);
#143=EDGE_LOOP('',(#771,#772,#773,#774));
#144=EDGE_LOOP('',(#775,#776,#777,#778,#779,#780,#781,#782));
#145=EDGE_LOOP('',(#783,#784,#785,#786,#787,#788,#789,#790));
#146=EDGE_LOOP('',(#791,#792,#793,#794,#795,#796,#797,#798));
#147=EDGE_LOOP('',(#799,#800,#801,#802,#803,#804,#805,#806));
#148=EDGE_LOOP('',(#807,#808,#809,#810));
#149=EDGE_LOOP('',(#811,#812,#813,#814));
#150=EDGE_LOOP('',(#815,#816,#817,#818));
#151=EDGE_LOOP('',(#819,#820,#821,#822));
#152=EDGE_LOOP('',(#823,#824,#825,#826));
#153=EDGE_LOOP('',(#827,#828,#829,#830));
#154=EDGE_LOOP('',(#831,#832,#833,#834));
#155=EDGE_LOOP('',(#835,#836,#837,#838));
#156=EDGE_LOOP('',(#839,#840,#841,#842));
#157=EDGE_LOOP('',(#843,#844,#845,#846));
#158=EDGE_LOOP('',(#847,#848,#849,#850));
#159=EDGE_LOOP('',(#851,#852,#853,#854));
#160=EDGE_LOOP('',(#855,#856,#857,#858));
#161=EDGE_LOOP('',(#859,#860,#861,#862));
#162=EDGE_LOOP('',(#863,#864,#865,#866));
#163=EDGE_LOOP('',(#867,#868,#869,#870));
#164=EDGE_LOOP('',(#871,#872,#873,#874,#875,#876,#877,#878));
#165=EDGE_LOOP('',(#879,#880,#881,#882));
#166=EDGE_LOOP('',(#883,#884,#885,#886));
#167=EDGE_LOOP('',(#887,#888,#889,#890));
#168=EDGE_LOOP('',(#891,#892,#893,#894));
#169=EDGE_LOOP('',(#895,#896,#897,#898));
#170=EDGE_LOOP('',(#899,#900,#901,#902));
#171=EDGE_LOOP('',(#903,#904,#905,#906));
#172=EDGE_LOOP('',(#907,#908,#909,#910));
#173=EDGE_LOOP('',(#911,#912,#913,#914));
#174=EDGE_LOOP('',(#915,#916,#917,#918));
#175=EDGE_LOOP('',(#919,#920,#921,#922));
#176=EDGE_LOOP('',(#923,#924,#925,#926));
#177=EDGE_LOOP('',(#927,#928,#929,#930));
#178=EDGE_LOOP('',(#931,#932,#933,#934));
#179=EDGE_LOOP('',(#935,#936,#937,#938,#939,#940,#941,#942));
#180=EDGE_LOOP('',(#943,#944,#945,#946));
#181=EDGE_LOOP('',(#947,#948,#949,#950));
#182=EDGE_LOOP('',(#951,#952,#953,#954));
#183=EDGE_LOOP('',(#955,#956,#957,#958));
#184=EDGE_LOOP('',(#959,#960,#961,#962));
#185=EDGE_LOOP('',(#963,#964,#965,#966));
#186=EDGE_LOOP('',(#967,#968,#969,#970));
#187=EDGE_LOOP('',(#971,#972,#973,#974));
#188=EDGE_LOOP('',(#975,#976,#977,#978));
#189=EDGE_LOOP('',(#979,#980,#981,#982));
#190=EDGE_LOOP('',(#983,#984,#985,#986));
#191=EDGE_LOOP('',(#987,#988,#989,#990));
#192=EDGE_LOOP('',(#991,#992,#993,#994));
#193=EDGE_LOOP('',(#995,#996,#997,#998));
#194=EDGE_LOOP('',(#999,#1000,#1001,#1002,#1003,#1004,#1005,#1006));
#195=EDGE_LOOP('',(#1007,#1008,#1009,#1010));
#196=EDGE_LOOP('',(#1011,#1012,#1013,#1014));
#197=EDGE_LOOP('',(#1015,#1016,#1017,#1018));
#198=EDGE_LOOP('',(#1019,#1020,#1021,#1022));
#199=EDGE_LOOP('',(#1023,#1024,#1025,#1026));
#200=EDGE_LOOP('',(#1027,#1028,#1029,#1030));
#201=EDGE_LOOP('',(#1031,#1032,#1033,#1034));
#202=EDGE_LOOP('',(#1035,#1036,#1037,#1038));
#203=EDGE_LOOP('',(#1039,#1040,#1041,#1042));
#204=EDGE_LOOP('',(#1043,#1044,#1045,#1046));
#205=EDGE_LOOP('',(#1047,#1048,#1049,#1050));
#206=EDGE_LOOP('',(#1051,#1052,#1053,#1054));
#207=EDGE_LOOP('',(#1055,#1056,#1057,#1058));
#208=EDGE_LOOP('',(#1059,#1060,#1061,#1062));
#209=EDGE_LOOP('',(#1063,#1064,#1065,#1066,#1067,#1068,#1069,#1070));
#210=EDGE_LOOP('',(#1071,#1072,#1073,#1074));
#211=EDGE_LOOP('',(#1075,#1076,#1077,#1078));
#212=EDGE_LOOP('',(#1079,#1080,#1081,#1082));
#213=EDGE_LOOP('',(#1083,#1084,#1085,#1086));
#214=EDGE_LOOP('',(#1087,#1088,#1089,#1090));
#215=EDGE_LOOP('',(#1091,#1092,#1093,#1094));
#216=EDGE_LOOP('',(#1095,#1096,#1097,#1098));
#217=EDGE_LOOP('',(#1099,#1100,#1101,#1102));
#218=EDGE_LOOP('',(#1103,#1104,#1105,#1106));
#219=LINE('',#1687,#355);
#220=LINE('',#1689,#356);
#221=LINE('',#1691,#357);
#222=LINE('',#1692,#358);
#223=LINE('',#1697,#359);
#224=LINE('',#1701,#360);
#225=LINE('',#1705,#361);
#226=LINE('',#1708,#362);
#227=LINE('',#1713,#363);
#228=LINE('',#1717,#364);
#229=LINE('',#1721,#365);
#230=LINE('',#1724,#366);
#231=LINE('',#1729,#367);
#232=LINE('',#1733,#368);
#233=LINE('',#1737,#369);
#234=LINE('',#1740,#370);
#235=LINE('',#1745,#371);
#236=LINE('',#1749,#372);
#237=LINE('',#1753,#373);
#238=LINE('',#1756,#374);
#239=LINE('',#1759,#375);
#240=LINE('',#1761,#376);
#241=LINE('',#1762,#377);
#242=LINE('',#1765,#378);
#243=LINE('',#1767,#379);
#244=LINE('',#1768,#380);
#245=LINE('',#1770,#381);
#246=LINE('',#1771,#382);
#247=LINE('',#1775,#383);
#248=LINE('',#1777,#384);
#249=LINE('',#1779,#385);
#250=LINE('',#1780,#386);
#251=LINE('',#1783,#387);
#252=LINE('',#1786,#388);
#253=LINE('',#1789,#389);
#254=LINE('',#1790,#390);
#255=LINE('',#1793,#391);
#256=LINE('',#1797,#392);
#257=LINE('',#1798,#393);
#258=LINE('',#1801,#394);
#259=LINE('',#1804,#395);
#260=LINE('',#1806,#396);
#261=LINE('',#1809,#397);
#262=LINE('',#1812,#398);
#263=LINE('',#1816,#399);
#264=LINE('',#1818,#400);
#265=LINE('',#1820,#401);
#266=LINE('',#1821,#402);
#267=LINE('',#1824,#403);
#268=LINE('',#1826,#404);
#269=LINE('',#1827,#405);
#270=LINE('',#1830,#406);
#271=LINE('',#1831,#407);
#272=LINE('',#1834,#408);
#273=LINE('',#1835,#409);
#274=LINE('',#1837,#410);
#275=LINE('',#1841,#411);
#276=LINE('',#1844,#412);
#277=LINE('',#1847,#413);
#278=LINE('',#1848,#414);
#279=LINE('',#1851,#415);
#280=LINE('',#1855,#416);
#281=LINE('',#1856,#417);
#282=LINE('',#1859,#418);
#283=LINE('',#1862,#419);
#284=LINE('',#1864,#420);
#285=LINE('',#1867,#421);
#286=LINE('',#1870,#422);
#287=LINE('',#1874,#423);
#288=LINE('',#1876,#424);
#289=LINE('',#1878,#425);
#290=LINE('',#1879,#426);
#291=LINE('',#1882,#427);
#292=LINE('',#1884,#428);
#293=LINE('',#1885,#429);
#294=LINE('',#1888,#430);
#295=LINE('',#1889,#431);
#296=LINE('',#1892,#432);
#297=LINE('',#1893,#433);
#298=LINE('',#1895,#434);
#299=LINE('',#1899,#435);
#300=LINE('',#1902,#436);
#301=LINE('',#1905,#437);
#302=LINE('',#1906,#438);
#303=LINE('',#1909,#439);
#304=LINE('',#1913,#440);
#305=LINE('',#1914,#441);
#306=LINE('',#1917,#442);
#307=LINE('',#1920,#443);
#308=LINE('',#1922,#444);
#309=LINE('',#1925,#445);
#310=LINE('',#1928,#446);
#311=LINE('',#1932,#447);
#312=LINE('',#1934,#448);
#313=LINE('',#1936,#449);
#314=LINE('',#1937,#450);
#315=LINE('',#1940,#451);
#316=LINE('',#1942,#452);
#317=LINE('',#1943,#453);
#318=LINE('',#1946,#454);
#319=LINE('',#1947,#455);
#320=LINE('',#1950,#456);
#321=LINE('',#1951,#457);
#322=LINE('',#1953,#458);
#323=LINE('',#1957,#459);
#324=LINE('',#1960,#460);
#325=LINE('',#1963,#461);
#326=LINE('',#1964,#462);
#327=LINE('',#1967,#463);
#328=LINE('',#1971,#464);
#329=LINE('',#1972,#465);
#330=LINE('',#1975,#466);
#331=LINE('',#1978,#467);
#332=LINE('',#1980,#468);
#333=LINE('',#1983,#469);
#334=LINE('',#1986,#470);
#335=LINE('',#1990,#471);
#336=LINE('',#1992,#472);
#337=LINE('',#1994,#473);
#338=LINE('',#1995,#474);
#339=LINE('',#1998,#475);
#340=LINE('',#2000,#476);
#341=LINE('',#2001,#477);
#342=LINE('',#2004,#478);
#343=LINE('',#2005,#479);
#344=LINE('',#2008,#480);
#345=LINE('',#2009,#481);
#346=LINE('',#2011,#482);
#347=LINE('',#2015,#483);
#348=LINE('',#2017,#484);
#349=LINE('',#2018,#485);
#350=LINE('',#2021,#486);
#351=LINE('',#2022,#487);
#352=LINE('',#2025,#488);
#353=LINE('',#2026,#489);
#354=LINE('',#2028,#490);
#355=VECTOR('',#1351,10.);
#356=VECTOR('',#1352,10.);
#357=VECTOR('',#1353,10.);
#358=VECTOR('',#1354,10.);
#359=VECTOR('',#1357,10.);
#360=VECTOR('',#1360,10.);
#361=VECTOR('',#1363,10.);
#362=VECTOR('',#1366,10.);
#363=VECTOR('',#1369,10.);
#364=VECTOR('',#1372,10.);
#365=VECTOR('',#1375,10.);
#366=VECTOR('',#1378,10.);
#367=VECTOR('',#1381,10.);
#368=VECTOR('',#1384,10.);
#369=VECTOR('',#1387,10.);
#370=VECTOR('',#1390,10.);
#371=VECTOR('',#1393,10.);
#372=VECTOR('',#1396,10.);
#373=VECTOR('',#1399,10.);
#374=VECTOR('',#1402,10.);
#375=VECTOR('',#1405,10.);
#376=VECTOR('',#1406,10.);
#377=VECTOR('',#1407,10.);
#378=VECTOR('',#1410,10.);
#379=VECTOR('',#1411,10.);
#380=VECTOR('',#1412,10.);
#381=VECTOR('',#1415,10.);
#382=VECTOR('',#1416,10.);
#383=VECTOR('',#1419,10.);
#384=VECTOR('',#1420,10.);
#385=VECTOR('',#1421,10.);
#386=VECTOR('',#1422,10.);
#387=VECTOR('',#1425,10.);
#388=VECTOR('',#1428,10.);
#389=VECTOR('',#1431,10.);
#390=VECTOR('',#1432,10.);
#391=VECTOR('',#1435,10.);
#392=VECTOR('',#1440,10.);
#393=VECTOR('',#1441,10.);
#394=VECTOR('',#1444,10.);
#395=VECTOR('',#1447,10.);
#396=VECTOR('',#1450,10.);
#397=VECTOR('',#1453,10.);
#398=VECTOR('',#1458,10.);
#399=VECTOR('',#1461,10.);
#400=VECTOR('',#1462,10.);
#401=VECTOR('',#1463,10.);
#402=VECTOR('',#1464,10.);
#403=VECTOR('',#1467,10.);
#404=VECTOR('',#1468,10.);
#405=VECTOR('',#1469,10.);
#406=VECTOR('',#1472,10.);
#407=VECTOR('',#1473,10.);
#408=VECTOR('',#1476,10.);
#409=VECTOR('',#1477,10.);
#410=VECTOR('',#1480,10.);
#411=VECTOR('',#1485,10.);
#412=VECTOR('',#1488,10.);
#413=VECTOR('',#1491,10.);
#414=VECTOR('',#1492,10.);
#415=VECTOR('',#1495,10.);
#416=VECTOR('',#1500,10.);
#417=VECTOR('',#1501,10.);
#418=VECTOR('',#1504,10.);
#419=VECTOR('',#1507,10.);
#420=VECTOR('',#1510,10.);
#421=VECTOR('',#1513,10.);
#422=VECTOR('',#1518,10.);
#423=VECTOR('',#1521,10.);
#424=VECTOR('',#1522,10.);
#425=VECTOR('',#1523,10.);
#426=VECTOR('',#1524,10.);
#427=VECTOR('',#1527,10.);
#428=VECTOR('',#1528,10.);
#429=VECTOR('',#1529,10.);
#430=VECTOR('',#1532,10.);
#431=VECTOR('',#1533,10.);
#432=VECTOR('',#1536,10.);
#433=VECTOR('',#1537,10.);
#434=VECTOR('',#1540,10.);
#435=VECTOR('',#1545,10.);
#436=VECTOR('',#1548,10.);
#437=VECTOR('',#1551,10.);
#438=VECTOR('',#1552,10.);
#439=VECTOR('',#1555,10.);
#440=VECTOR('',#1560,10.);
#441=VECTOR('',#1561,10.);
#442=VECTOR('',#1564,10.);
#443=VECTOR('',#1567,10.);
#444=VECTOR('',#1570,10.);
#445=VECTOR('',#1573,10.);
#446=VECTOR('',#1578,10.);
#447=VECTOR('',#1581,10.);
#448=VECTOR('',#1582,10.);
#449=VECTOR('',#1583,10.);
#450=VECTOR('',#1584,10.);
#451=VECTOR('',#1587,10.);
#452=VECTOR('',#1588,10.);
#453=VECTOR('',#1589,10.);
#454=VECTOR('',#1592,10.);
#455=VECTOR('',#1593,10.);
#456=VECTOR('',#1596,10.);
#457=VECTOR('',#1597,10.);
#458=VECTOR('',#1600,10.);
#459=VECTOR('',#1605,10.);
#460=VECTOR('',#1608,10.);
#461=VECTOR('',#1611,10.);
#462=VECTOR('',#1612,10.);
#463=VECTOR('',#1615,10.);
#464=VECTOR('',#1620,10.);
#465=VECTOR('',#1621,10.);
#466=VECTOR('',#1624,10.);
#467=VECTOR('',#1627,10.);
#468=VECTOR('',#1630,10.);
#469=VECTOR('',#1633,10.);
#470=VECTOR('',#1638,10.);
#471=VECTOR('',#1641,10.);
#472=VECTOR('',#1642,10.);
#473=VECTOR('',#1643,10.);
#474=VECTOR('',#1644,10.);
#475=VECTOR('',#1647,10.);
#476=VECTOR('',#1648,10.);
#477=VECTOR('',#1649,10.);
#478=VECTOR('',#1652,10.);
#479=VECTOR('',#1653,10.);
#480=VECTOR('',#1656,10.);
#481=VECTOR('',#1657,10.);
#482=VECTOR('',#1660,10.);
#483=VECTOR('',#1665,10.);
#484=VECTOR('',#1666,10.);
#485=VECTOR('',#1667,10.);
#486=VECTOR('',#1670,10.);
#487=VECTOR('',#1671,10.);
#488=VECTOR('',#1674,10.);
#489=VECTOR('',#1675,10.);
#490=VECTOR('',#1678,10.);
#491=VERTEX_POINT('',#1685);
#492=VERTEX_POINT('',#1686);
#493=VERTEX_POINT('',#1688);
#494=VERTEX_POINT('',#1690);
#495=VERTEX_POINT('',#1693);
#496=VERTEX_POINT('',#1694);
#497=VERTEX_POINT('',#1696);
#498=VERTEX_POINT('',#1698);
#499=VERTEX_POINT('',#1700);
#500=VERTEX_POINT('',#1702);
#501=VERTEX_POINT('',#1704);
#502=VERTEX_POINT('',#1706);
#503=VERTEX_POINT('',#1709);
#504=VERTEX_POINT('',#1710);
#505=VERTEX_POINT('',#1712);
#506=VERTEX_POINT('',#1714);
#507=VERTEX_POINT('',#1716);
#508=VERTEX_POINT('',#1718);
#509=VERTEX_POINT('',#1720);
#510=VERTEX_POINT('',#1722);
#511=VERTEX_POINT('',#1725);
#512=VERTEX_POINT('',#1726);
#513=VERTEX_POINT('',#1728);
#514=VERTEX_POINT('',#1730);
#515=VERTEX_POINT('',#1732);
#516=VERTEX_POINT('',#1734);
#517=VERTEX_POINT('',#1736);
#518=VERTEX_POINT('',#1738);
#519=VERTEX_POINT('',#1741);
#520=VERTEX_POINT('',#1742);
#521=VERTEX_POINT('',#1744);
#522=VERTEX_POINT('',#1746);
#523=VERTEX_POINT('',#1748);
#524=VERTEX_POINT('',#1750);
#525=VERTEX_POINT('',#1752);
#526=VERTEX_POINT('',#1754);
#527=VERTEX_POINT('',#1758);
#528=VERTEX_POINT('',#1760);
#529=VERTEX_POINT('',#1764);
#530=VERTEX_POINT('',#1766);
#531=VERTEX_POINT('',#1773);
#532=VERTEX_POINT('',#1774);
#533=VERTEX_POINT('',#1776);
#534=VERTEX_POINT('',#1778);
#535=VERTEX_POINT('',#1782);
#536=VERTEX_POINT('',#1784);
#537=VERTEX_POINT('',#1788);
#538=VERTEX_POINT('',#1792);
#539=VERTEX_POINT('',#1796);
#540=VERTEX_POINT('',#1800);
#541=VERTEX_POINT('',#1802);
#542=VERTEX_POINT('',#1808);
#543=VERTEX_POINT('',#1814);
#544=VERTEX_POINT('',#1815);
#545=VERTEX_POINT('',#1817);
#546=VERTEX_POINT('',#1819);
#547=VERTEX_POINT('',#1823);
#548=VERTEX_POINT('',#1825);
#549=VERTEX_POINT('',#1829);
#550=VERTEX_POINT('',#1833);
#551=VERTEX_POINT('',#1840);
#552=VERTEX_POINT('',#1842);
#553=VERTEX_POINT('',#1846);
#554=VERTEX_POINT('',#1850);
#555=VERTEX_POINT('',#1854);
#556=VERTEX_POINT('',#1858);
#557=VERTEX_POINT('',#1860);
#558=VERTEX_POINT('',#1866);
#559=VERTEX_POINT('',#1872);
#560=VERTEX_POINT('',#1873);
#561=VERTEX_POINT('',#1875);
#562=VERTEX_POINT('',#1877);
#563=VERTEX_POINT('',#1881);
#564=VERTEX_POINT('',#1883);
#565=VERTEX_POINT('',#1887);
#566=VERTEX_POINT('',#1891);
#567=VERTEX_POINT('',#1898);
#568=VERTEX_POINT('',#1900);
#569=VERTEX_POINT('',#1904);
#570=VERTEX_POINT('',#1908);
#571=VERTEX_POINT('',#1912);
#572=VERTEX_POINT('',#1916);
#573=VERTEX_POINT('',#1918);
#574=VERTEX_POINT('',#1924);
#575=VERTEX_POINT('',#1930);
#576=VERTEX_POINT('',#1931);
#577=VERTEX_POINT('',#1933);
#578=VERTEX_POINT('',#1935);
#579=VERTEX_POINT('',#1939);
#580=VERTEX_POINT('',#1941);
#581=VERTEX_POINT('',#1945);
#582=VERTEX_POINT('',#1949);
#583=VERTEX_POINT('',#1956);
#584=VERTEX_POINT('',#1958);
#585=VERTEX_POINT('',#1962);
#586=VERTEX_POINT('',#1966);
#587=VERTEX_POINT('',#1970);
#588=VERTEX_POINT('',#1974);
#589=VERTEX_POINT('',#1976);
#590=VERTEX_POINT('',#1982);
#591=VERTEX_POINT('',#1988);
#592=VERTEX_POINT('',#1989);
#593=VERTEX_POINT('',#1991);
#594=VERTEX_POINT('',#1993);
#595=VERTEX_POINT('',#1997);
#596=VERTEX_POINT('',#1999);
#597=VERTEX_POINT('',#2003);
#598=VERTEX_POINT('',#2007);
#599=VERTEX_POINT('',#2014);
#600=VERTEX_POINT('',#2016);
#601=VERTEX_POINT('',#2020);
#602=VERTEX_POINT('',#2024);
#603=EDGE_CURVE('',#491,#492,#219,.T.);
#604=EDGE_CURVE('',#491,#493,#220,.T.);
#605=EDGE_CURVE('',#494,#493,#221,.T.);
#606=EDGE_CURVE('',#492,#494,#222,.T.);
#607=EDGE_CURVE('',#495,#496,#44,.T.);
#608=EDGE_CURVE('',#497,#495,#223,.T.);
#609=EDGE_CURVE('',#498,#497,#45,.T.);
#610=EDGE_CURVE('',#499,#498,#224,.T.);
#611=EDGE_CURVE('',#500,#499,#46,.T.);
#612=EDGE_CURVE('',#501,#500,#225,.T.);
#613=EDGE_CURVE('',#502,#501,#47,.T.);
#614=EDGE_CURVE('',#496,#502,#226,.T.);
#615=EDGE_CURVE('',#503,#504,#48,.T.);
#616=EDGE_CURVE('',#505,#503,#227,.T.);
#617=EDGE_CURVE('',#506,#505,#49,.T.);
#618=EDGE_CURVE('',#507,#506,#228,.T.);
#619=EDGE_CURVE('',#508,#507,#50,.T.);
#620=EDGE_CURVE('',#509,#508,#229,.T.);
#621=EDGE_CURVE('',#510,#509,#51,.T.);
#622=EDGE_CURVE('',#504,#510,#230,.T.);
#623=EDGE_CURVE('',#511,#512,#52,.T.);
#624=EDGE_CURVE('',#513,#511,#231,.T.);
#625=EDGE_CURVE('',#514,#513,#53,.T.);
#626=EDGE_CURVE('',#515,#514,#232,.T.);
#627=EDGE_CURVE('',#516,#515,#54,.T.);
#628=EDGE_CURVE('',#517,#516,#233,.T.);
#629=EDGE_CURVE('',#518,#517,#55,.T.);
#630=EDGE_CURVE('',#512,#518,#234,.T.);
#631=EDGE_CURVE('',#519,#520,#56,.T.);
#632=EDGE_CURVE('',#521,#519,#235,.T.);
#633=EDGE_CURVE('',#522,#521,#57,.T.);
#634=EDGE_CURVE('',#523,#522,#236,.T.);
#635=EDGE_CURVE('',#524,#523,#58,.T.);
#636=EDGE_CURVE('',#525,#524,#237,.T.);
#637=EDGE_CURVE('',#526,#525,#59,.T.);
#638=EDGE_CURVE('',#520,#526,#238,.T.);
#639=EDGE_CURVE('',#527,#491,#239,.T.);
#640=EDGE_CURVE('',#527,#528,#240,.T.);
#641=EDGE_CURVE('',#493,#528,#241,.T.);
#642=EDGE_CURVE('',#492,#529,#242,.T.);
#643=EDGE_CURVE('',#530,#494,#243,.T.);
#644=EDGE_CURVE('',#529,#530,#244,.T.);
#645=EDGE_CURVE('',#529,#527,#245,.T.);
#646=EDGE_CURVE('',#528,#530,#246,.T.);
#647=EDGE_CURVE('',#531,#532,#247,.T.);
#648=EDGE_CURVE('',#532,#533,#248,.T.);
#649=EDGE_CURVE('',#533,#534,#249,.T.);
#650=EDGE_CURVE('',#534,#531,#250,.T.);
#651=EDGE_CURVE('',#523,#535,#251,.T.);
#652=EDGE_CURVE('',#535,#536,#60,.F.);
#653=EDGE_CURVE('',#536,#524,#252,.T.);
#654=EDGE_CURVE('',#537,#522,#253,.T.);
#655=EDGE_CURVE('',#535,#537,#254,.T.);
#656=EDGE_CURVE('',#521,#538,#255,.T.);
#657=EDGE_CURVE('',#538,#537,#61,.F.);
#658=EDGE_CURVE('',#539,#519,#256,.T.);
#659=EDGE_CURVE('',#538,#539,#257,.T.);
#660=EDGE_CURVE('',#525,#540,#258,.T.);
#661=EDGE_CURVE('',#540,#541,#62,.F.);
#662=EDGE_CURVE('',#541,#526,#259,.T.);
#663=EDGE_CURVE('',#540,#536,#260,.T.);
#664=EDGE_CURVE('',#520,#542,#261,.T.);
#665=EDGE_CURVE('',#542,#539,#63,.F.);
#666=EDGE_CURVE('',#542,#541,#262,.T.);
#667=EDGE_CURVE('',#543,#544,#263,.T.);
#668=EDGE_CURVE('',#545,#543,#264,.T.);
#669=EDGE_CURVE('',#546,#545,#265,.T.);
#670=EDGE_CURVE('',#544,#546,#266,.T.);
#671=EDGE_CURVE('',#543,#547,#267,.T.);
#672=EDGE_CURVE('',#548,#547,#268,.T.);
#673=EDGE_CURVE('',#545,#548,#269,.T.);
#674=EDGE_CURVE('',#544,#549,#270,.T.);
#675=EDGE_CURVE('',#547,#549,#271,.T.);
#676=EDGE_CURVE('',#550,#548,#272,.T.);
#677=EDGE_CURVE('',#546,#550,#273,.T.);
#678=EDGE_CURVE('',#549,#550,#274,.T.);
#679=EDGE_CURVE('',#515,#551,#275,.T.);
#680=EDGE_CURVE('',#551,#552,#64,.F.);
#681=EDGE_CURVE('',#552,#516,#276,.T.);
#682=EDGE_CURVE('',#553,#514,#277,.T.);
#683=EDGE_CURVE('',#551,#553,#278,.T.);
#684=EDGE_CURVE('',#513,#554,#279,.T.);
#685=EDGE_CURVE('',#554,#553,#65,.F.);
#686=EDGE_CURVE('',#555,#511,#280,.T.);
#687=EDGE_CURVE('',#554,#555,#281,.T.);
#688=EDGE_CURVE('',#517,#556,#282,.T.);
#689=EDGE_CURVE('',#556,#557,#66,.F.);
#690=EDGE_CURVE('',#557,#518,#283,.T.);
#691=EDGE_CURVE('',#556,#552,#284,.T.);
#692=EDGE_CURVE('',#512,#558,#285,.T.);
#693=EDGE_CURVE('',#558,#555,#67,.F.);
#694=EDGE_CURVE('',#558,#557,#286,.T.);
#695=EDGE_CURVE('',#559,#560,#287,.T.);
#696=EDGE_CURVE('',#561,#559,#288,.T.);
#697=EDGE_CURVE('',#562,#561,#289,.T.);
#698=EDGE_CURVE('',#560,#562,#290,.T.);
#699=EDGE_CURVE('',#559,#563,#291,.T.);
#700=EDGE_CURVE('',#564,#563,#292,.T.);
#701=EDGE_CURVE('',#561,#564,#293,.T.);
#702=EDGE_CURVE('',#560,#565,#294,.T.);
#703=EDGE_CURVE('',#563,#565,#295,.T.);
#704=EDGE_CURVE('',#566,#564,#296,.T.);
#705=EDGE_CURVE('',#562,#566,#297,.T.);
#706=EDGE_CURVE('',#565,#566,#298,.T.);
#707=EDGE_CURVE('',#507,#567,#299,.T.);
#708=EDGE_CURVE('',#567,#568,#68,.F.);
#709=EDGE_CURVE('',#568,#508,#300,.T.);
#710=EDGE_CURVE('',#569,#506,#301,.T.);
#711=EDGE_CURVE('',#567,#569,#302,.T.);
#712=EDGE_CURVE('',#505,#570,#303,.T.);
#713=EDGE_CURVE('',#570,#569,#69,.F.);
#714=EDGE_CURVE('',#571,#503,#304,.T.);
#715=EDGE_CURVE('',#570,#571,#305,.T.);
#716=EDGE_CURVE('',#509,#572,#306,.T.);
#717=EDGE_CURVE('',#572,#573,#70,.F.);
#718=EDGE_CURVE('',#573,#510,#307,.T.);
#719=EDGE_CURVE('',#572,#568,#308,.T.);
#720=EDGE_CURVE('',#504,#574,#309,.T.);
#721=EDGE_CURVE('',#574,#571,#71,.F.);
#722=EDGE_CURVE('',#574,#573,#310,.T.);
#723=EDGE_CURVE('',#575,#576,#311,.T.);
#724=EDGE_CURVE('',#577,#575,#312,.T.);
#725=EDGE_CURVE('',#578,#577,#313,.T.);
#726=EDGE_CURVE('',#576,#578,#314,.T.);
#727=EDGE_CURVE('',#575,#579,#315,.T.);
#728=EDGE_CURVE('',#580,#579,#316,.T.);
#729=EDGE_CURVE('',#577,#580,#317,.T.);
#730=EDGE_CURVE('',#576,#581,#318,.T.);
#731=EDGE_CURVE('',#579,#581,#319,.T.);
#732=EDGE_CURVE('',#582,#580,#320,.T.);
#733=EDGE_CURVE('',#578,#582,#321,.T.);
#734=EDGE_CURVE('',#581,#582,#322,.T.);
#735=EDGE_CURVE('',#499,#583,#323,.T.);
#736=EDGE_CURVE('',#583,#584,#72,.F.);
#737=EDGE_CURVE('',#584,#500,#324,.T.);
#738=EDGE_CURVE('',#585,#498,#325,.T.);
#739=EDGE_CURVE('',#583,#585,#326,.T.);
#740=EDGE_CURVE('',#497,#586,#327,.T.);
#741=EDGE_CURVE('',#586,#585,#73,.F.);
#742=EDGE_CURVE('',#587,#495,#328,.T.);
#743=EDGE_CURVE('',#586,#587,#329,.T.);
#744=EDGE_CURVE('',#501,#588,#330,.T.);
#745=EDGE_CURVE('',#588,#589,#74,.F.);
#746=EDGE_CURVE('',#589,#502,#331,.T.);
#747=EDGE_CURVE('',#588,#584,#332,.T.);
#748=EDGE_CURVE('',#496,#590,#333,.T.);
#749=EDGE_CURVE('',#590,#587,#75,.F.);
#750=EDGE_CURVE('',#590,#589,#334,.T.);
#751=EDGE_CURVE('',#591,#592,#335,.T.);
#752=EDGE_CURVE('',#593,#591,#336,.T.);
#753=EDGE_CURVE('',#594,#593,#337,.T.);
#754=EDGE_CURVE('',#592,#594,#338,.T.);
#755=EDGE_CURVE('',#591,#595,#339,.T.);
#756=EDGE_CURVE('',#596,#595,#340,.T.);
#757=EDGE_CURVE('',#593,#596,#341,.T.);
#758=EDGE_CURVE('',#592,#597,#342,.T.);
#759=EDGE_CURVE('',#595,#597,#343,.T.);
#760=EDGE_CURVE('',#598,#596,#344,.T.);
#761=EDGE_CURVE('',#594,#598,#345,.T.);
#762=EDGE_CURVE('',#597,#598,#346,.T.);
#763=EDGE_CURVE('',#599,#532,#347,.T.);
#764=EDGE_CURVE('',#600,#599,#348,.T.);
#765=EDGE_CURVE('',#600,#533,#349,.T.);
#766=EDGE_CURVE('',#601,#600,#350,.T.);
#767=EDGE_CURVE('',#601,#534,#351,.T.);
#768=EDGE_CURVE('',#602,#601,#352,.T.);
#769=EDGE_CURVE('',#531,#602,#353,.T.);
#770=EDGE_CURVE('',#599,#602,#354,.T.);
#771=ORIENTED_EDGE('',*,*,#603,.F.);
#772=ORIENTED_EDGE('',*,*,#604,.T.);
#773=ORIENTED_EDGE('',*,*,#605,.F.);
#774=ORIENTED_EDGE('',*,*,#606,.F.);
#775=ORIENTED_EDGE('',*,*,#607,.F.);
#776=ORIENTED_EDGE('',*,*,#608,.F.);
#777=ORIENTED_EDGE('',*,*,#609,.F.);
#778=ORIENTED_EDGE('',*,*,#610,.F.);
#779=ORIENTED_EDGE('',*,*,#611,.F.);
#780=ORIENTED_EDGE('',*,*,#612,.F.);
#781=ORIENTED_EDGE('',*,*,#613,.F.);
#782=ORIENTED_EDGE('',*,*,#614,.F.);
#783=ORIENTED_EDGE('',*,*,#615,.F.);
#784=ORIENTED_EDGE('',*,*,#616,.F.);
#785=ORIENTED_EDGE('',*,*,#617,.F.);
#786=ORIENTED_EDGE('',*,*,#618,.F.);
#787=ORIENTED_EDGE('',*,*,#619,.F.);
#788=ORIENTED_EDGE('',*,*,#620,.F.);
#789=ORIENTED_EDGE('',*,*,#621,.F.);
#790=ORIENTED_EDGE('',*,*,#622,.F.);
#791=ORIENTED_EDGE('',*,*,#623,.F.);
#792=ORIENTED_EDGE('',*,*,#624,.F.);
#793=ORIENTED_EDGE('',*,*,#625,.F.);
#794=ORIENTED_EDGE('',*,*,#626,.F.);
#795=ORIENTED_EDGE('',*,*,#627,.F.);
#796=ORIENTED_EDGE('',*,*,#628,.F.);
#797=ORIENTED_EDGE('',*,*,#629,.F.);
#798=ORIENTED_EDGE('',*,*,#630,.F.);
#799=ORIENTED_EDGE('',*,*,#631,.F.);
#800=ORIENTED_EDGE('',*,*,#632,.F.);
#801=ORIENTED_EDGE('',*,*,#633,.F.);
#802=ORIENTED_EDGE('',*,*,#634,.F.);
#803=ORIENTED_EDGE('',*,*,#635,.F.);
#804=ORIENTED_EDGE('',*,*,#636,.F.);
#805=ORIENTED_EDGE('',*,*,#637,.F.);
#806=ORIENTED_EDGE('',*,*,#638,.F.);
#807=ORIENTED_EDGE('',*,*,#639,.F.);
#808=ORIENTED_EDGE('',*,*,#640,.T.);
#809=ORIENTED_EDGE('',*,*,#641,.F.);
#810=ORIENTED_EDGE('',*,*,#604,.F.);
#811=ORIENTED_EDGE('',*,*,#642,.F.);
#812=ORIENTED_EDGE('',*,*,#606,.T.);
#813=ORIENTED_EDGE('',*,*,#643,.F.);
#814=ORIENTED_EDGE('',*,*,#644,.F.);
#815=ORIENTED_EDGE('',*,*,#645,.F.);
#816=ORIENTED_EDGE('',*,*,#644,.T.);
#817=ORIENTED_EDGE('',*,*,#646,.F.);
#818=ORIENTED_EDGE('',*,*,#640,.F.);
#819=ORIENTED_EDGE('',*,*,#647,.T.);
#820=ORIENTED_EDGE('',*,*,#648,.T.);
#821=ORIENTED_EDGE('',*,*,#649,.T.);
#822=ORIENTED_EDGE('',*,*,#650,.T.);
#823=ORIENTED_EDGE('',*,*,#646,.T.);
#824=ORIENTED_EDGE('',*,*,#643,.T.);
#825=ORIENTED_EDGE('',*,*,#605,.T.);
#826=ORIENTED_EDGE('',*,*,#641,.T.);
#827=ORIENTED_EDGE('',*,*,#635,.T.);
#828=ORIENTED_EDGE('',*,*,#651,.T.);
#829=ORIENTED_EDGE('',*,*,#652,.T.);
#830=ORIENTED_EDGE('',*,*,#653,.T.);
#831=ORIENTED_EDGE('',*,*,#634,.T.);
#832=ORIENTED_EDGE('',*,*,#654,.F.);
#833=ORIENTED_EDGE('',*,*,#655,.F.);
#834=ORIENTED_EDGE('',*,*,#651,.F.);
#835=ORIENTED_EDGE('',*,*,#633,.T.);
#836=ORIENTED_EDGE('',*,*,#656,.T.);
#837=ORIENTED_EDGE('',*,*,#657,.T.);
#838=ORIENTED_EDGE('',*,*,#654,.T.);
#839=ORIENTED_EDGE('',*,*,#632,.T.);
#840=ORIENTED_EDGE('',*,*,#658,.F.);
#841=ORIENTED_EDGE('',*,*,#659,.F.);
#842=ORIENTED_EDGE('',*,*,#656,.F.);
#843=ORIENTED_EDGE('',*,*,#637,.T.);
#844=ORIENTED_EDGE('',*,*,#660,.T.);
#845=ORIENTED_EDGE('',*,*,#661,.T.);
#846=ORIENTED_EDGE('',*,*,#662,.T.);
#847=ORIENTED_EDGE('',*,*,#636,.T.);
#848=ORIENTED_EDGE('',*,*,#653,.F.);
#849=ORIENTED_EDGE('',*,*,#663,.F.);
#850=ORIENTED_EDGE('',*,*,#660,.F.);
#851=ORIENTED_EDGE('',*,*,#631,.T.);
#852=ORIENTED_EDGE('',*,*,#664,.T.);
#853=ORIENTED_EDGE('',*,*,#665,.T.);
#854=ORIENTED_EDGE('',*,*,#658,.T.);
#855=ORIENTED_EDGE('',*,*,#638,.T.);
#856=ORIENTED_EDGE('',*,*,#662,.F.);
#857=ORIENTED_EDGE('',*,*,#666,.F.);
#858=ORIENTED_EDGE('',*,*,#664,.F.);
#859=ORIENTED_EDGE('',*,*,#667,.F.);
#860=ORIENTED_EDGE('',*,*,#668,.F.);
#861=ORIENTED_EDGE('',*,*,#669,.F.);
#862=ORIENTED_EDGE('',*,*,#670,.F.);
#863=ORIENTED_EDGE('',*,*,#668,.T.);
#864=ORIENTED_EDGE('',*,*,#671,.T.);
#865=ORIENTED_EDGE('',*,*,#672,.F.);
#866=ORIENTED_EDGE('',*,*,#673,.F.);
#867=ORIENTED_EDGE('',*,*,#667,.T.);
#868=ORIENTED_EDGE('',*,*,#674,.T.);
#869=ORIENTED_EDGE('',*,*,#675,.F.);
#870=ORIENTED_EDGE('',*,*,#671,.F.);
#871=ORIENTED_EDGE('',*,*,#663,.T.);
#872=ORIENTED_EDGE('',*,*,#652,.F.);
#873=ORIENTED_EDGE('',*,*,#655,.T.);
#874=ORIENTED_EDGE('',*,*,#657,.F.);
#875=ORIENTED_EDGE('',*,*,#659,.T.);
#876=ORIENTED_EDGE('',*,*,#665,.F.);
#877=ORIENTED_EDGE('',*,*,#666,.T.);
#878=ORIENTED_EDGE('',*,*,#661,.F.);
#879=ORIENTED_EDGE('',*,*,#669,.T.);
#880=ORIENTED_EDGE('',*,*,#673,.T.);
#881=ORIENTED_EDGE('',*,*,#676,.F.);
#882=ORIENTED_EDGE('',*,*,#677,.F.);
#883=ORIENTED_EDGE('',*,*,#670,.T.);
#884=ORIENTED_EDGE('',*,*,#677,.T.);
#885=ORIENTED_EDGE('',*,*,#678,.F.);
#886=ORIENTED_EDGE('',*,*,#674,.F.);
#887=ORIENTED_EDGE('',*,*,#675,.T.);
#888=ORIENTED_EDGE('',*,*,#678,.T.);
#889=ORIENTED_EDGE('',*,*,#676,.T.);
#890=ORIENTED_EDGE('',*,*,#672,.T.);
#891=ORIENTED_EDGE('',*,*,#627,.T.);
#892=ORIENTED_EDGE('',*,*,#679,.T.);
#893=ORIENTED_EDGE('',*,*,#680,.T.);
#894=ORIENTED_EDGE('',*,*,#681,.T.);
#895=ORIENTED_EDGE('',*,*,#626,.T.);
#896=ORIENTED_EDGE('',*,*,#682,.F.);
#897=ORIENTED_EDGE('',*,*,#683,.F.);
#898=ORIENTED_EDGE('',*,*,#679,.F.);
#899=ORIENTED_EDGE('',*,*,#625,.T.);
#900=ORIENTED_EDGE('',*,*,#684,.T.);
#901=ORIENTED_EDGE('',*,*,#685,.T.);
#902=ORIENTED_EDGE('',*,*,#682,.T.);
#903=ORIENTED_EDGE('',*,*,#624,.T.);
#904=ORIENTED_EDGE('',*,*,#686,.F.);
#905=ORIENTED_EDGE('',*,*,#687,.F.);
#906=ORIENTED_EDGE('',*,*,#684,.F.);
#907=ORIENTED_EDGE('',*,*,#629,.T.);
#908=ORIENTED_EDGE('',*,*,#688,.T.);
#909=ORIENTED_EDGE('',*,*,#689,.T.);
#910=ORIENTED_EDGE('',*,*,#690,.T.);
#911=ORIENTED_EDGE('',*,*,#628,.T.);
#912=ORIENTED_EDGE('',*,*,#681,.F.);
#913=ORIENTED_EDGE('',*,*,#691,.F.);
#914=ORIENTED_EDGE('',*,*,#688,.F.);
#915=ORIENTED_EDGE('',*,*,#623,.T.);
#916=ORIENTED_EDGE('',*,*,#692,.T.);
#917=ORIENTED_EDGE('',*,*,#693,.T.);
#918=ORIENTED_EDGE('',*,*,#686,.T.);
#919=ORIENTED_EDGE('',*,*,#630,.T.);
#920=ORIENTED_EDGE('',*,*,#690,.F.);
#921=ORIENTED_EDGE('',*,*,#694,.F.);
#922=ORIENTED_EDGE('',*,*,#692,.F.);
#923=ORIENTED_EDGE('',*,*,#695,.F.);
#924=ORIENTED_EDGE('',*,*,#696,.F.);
#925=ORIENTED_EDGE('',*,*,#697,.F.);
#926=ORIENTED_EDGE('',*,*,#698,.F.);
#927=ORIENTED_EDGE('',*,*,#696,.T.);
#928=ORIENTED_EDGE('',*,*,#699,.T.);
#929=ORIENTED_EDGE('',*,*,#700,.F.);
#930=ORIENTED_EDGE('',*,*,#701,.F.);
#931=ORIENTED_EDGE('',*,*,#695,.T.);
#932=ORIENTED_EDGE('',*,*,#702,.T.);
#933=ORIENTED_EDGE('',*,*,#703,.F.);
#934=ORIENTED_EDGE('',*,*,#699,.F.);
#935=ORIENTED_EDGE('',*,*,#691,.T.);
#936=ORIENTED_EDGE('',*,*,#680,.F.);
#937=ORIENTED_EDGE('',*,*,#683,.T.);
#938=ORIENTED_EDGE('',*,*,#685,.F.);
#939=ORIENTED_EDGE('',*,*,#687,.T.);
#940=ORIENTED_EDGE('',*,*,#693,.F.);
#941=ORIENTED_EDGE('',*,*,#694,.T.);
#942=ORIENTED_EDGE('',*,*,#689,.F.);
#943=ORIENTED_EDGE('',*,*,#697,.T.);
#944=ORIENTED_EDGE('',*,*,#701,.T.);
#945=ORIENTED_EDGE('',*,*,#704,.F.);
#946=ORIENTED_EDGE('',*,*,#705,.F.);
#947=ORIENTED_EDGE('',*,*,#698,.T.);
#948=ORIENTED_EDGE('',*,*,#705,.T.);
#949=ORIENTED_EDGE('',*,*,#706,.F.);
#950=ORIENTED_EDGE('',*,*,#702,.F.);
#951=ORIENTED_EDGE('',*,*,#703,.T.);
#952=ORIENTED_EDGE('',*,*,#706,.T.);
#953=ORIENTED_EDGE('',*,*,#704,.T.);
#954=ORIENTED_EDGE('',*,*,#700,.T.);
#955=ORIENTED_EDGE('',*,*,#619,.T.);
#956=ORIENTED_EDGE('',*,*,#707,.T.);
#957=ORIENTED_EDGE('',*,*,#708,.T.);
#958=ORIENTED_EDGE('',*,*,#709,.T.);
#959=ORIENTED_EDGE('',*,*,#618,.T.);
#960=ORIENTED_EDGE('',*,*,#710,.F.);
#961=ORIENTED_EDGE('',*,*,#711,.F.);
#962=ORIENTED_EDGE('',*,*,#707,.F.);
#963=ORIENTED_EDGE('',*,*,#617,.T.);
#964=ORIENTED_EDGE('',*,*,#712,.T.);
#965=ORIENTED_EDGE('',*,*,#713,.T.);
#966=ORIENTED_EDGE('',*,*,#710,.T.);
#967=ORIENTED_EDGE('',*,*,#616,.T.);
#968=ORIENTED_EDGE('',*,*,#714,.F.);
#969=ORIENTED_EDGE('',*,*,#715,.F.);
#970=ORIENTED_EDGE('',*,*,#712,.F.);
#971=ORIENTED_EDGE('',*,*,#621,.T.);
#972=ORIENTED_EDGE('',*,*,#716,.T.);
#973=ORIENTED_EDGE('',*,*,#717,.T.);
#974=ORIENTED_EDGE('',*,*,#718,.T.);
#975=ORIENTED_EDGE('',*,*,#620,.T.);
#976=ORIENTED_EDGE('',*,*,#709,.F.);
#977=ORIENTED_EDGE('',*,*,#719,.F.);
#978=ORIENTED_EDGE('',*,*,#716,.F.);
#979=ORIENTED_EDGE('',*,*,#615,.T.);
#980=ORIENTED_EDGE('',*,*,#720,.T.);
#981=ORIENTED_EDGE('',*,*,#721,.T.);
#982=ORIENTED_EDGE('',*,*,#714,.T.);
#983=ORIENTED_EDGE('',*,*,#622,.T.);
#984=ORIENTED_EDGE('',*,*,#718,.F.);
#985=ORIENTED_EDGE('',*,*,#722,.F.);
#986=ORIENTED_EDGE('',*,*,#720,.F.);
#987=ORIENTED_EDGE('',*,*,#723,.F.);
#988=ORIENTED_EDGE('',*,*,#724,.F.);
#989=ORIENTED_EDGE('',*,*,#725,.F.);
#990=ORIENTED_EDGE('',*,*,#726,.F.);
#991=ORIENTED_EDGE('',*,*,#724,.T.);
#992=ORIENTED_EDGE('',*,*,#727,.T.);
#993=ORIENTED_EDGE('',*,*,#728,.F.);
#994=ORIENTED_EDGE('',*,*,#729,.F.);
#995=ORIENTED_EDGE('',*,*,#723,.T.);
#996=ORIENTED_EDGE('',*,*,#730,.T.);
#997=ORIENTED_EDGE('',*,*,#731,.F.);
#998=ORIENTED_EDGE('',*,*,#727,.F.);
#999=ORIENTED_EDGE('',*,*,#719,.T.);
#1000=ORIENTED_EDGE('',*,*,#708,.F.);
#1001=ORIENTED_EDGE('',*,*,#711,.T.);
#1002=ORIENTED_EDGE('',*,*,#713,.F.);
#1003=ORIENTED_EDGE('',*,*,#715,.T.);
#1004=ORIENTED_EDGE('',*,*,#721,.F.);
#1005=ORIENTED_EDGE('',*,*,#722,.T.);
#1006=ORIENTED_EDGE('',*,*,#717,.F.);
#1007=ORIENTED_EDGE('',*,*,#725,.T.);
#1008=ORIENTED_EDGE('',*,*,#729,.T.);
#1009=ORIENTED_EDGE('',*,*,#732,.F.);
#1010=ORIENTED_EDGE('',*,*,#733,.F.);
#1011=ORIENTED_EDGE('',*,*,#726,.T.);
#1012=ORIENTED_EDGE('',*,*,#733,.T.);
#1013=ORIENTED_EDGE('',*,*,#734,.F.);
#1014=ORIENTED_EDGE('',*,*,#730,.F.);
#1015=ORIENTED_EDGE('',*,*,#731,.T.);
#1016=ORIENTED_EDGE('',*,*,#734,.T.);
#1017=ORIENTED_EDGE('',*,*,#732,.T.);
#1018=ORIENTED_EDGE('',*,*,#728,.T.);
#1019=ORIENTED_EDGE('',*,*,#611,.T.);
#1020=ORIENTED_EDGE('',*,*,#735,.T.);
#1021=ORIENTED_EDGE('',*,*,#736,.T.);
#1022=ORIENTED_EDGE('',*,*,#737,.T.);
#1023=ORIENTED_EDGE('',*,*,#610,.T.);
#1024=ORIENTED_EDGE('',*,*,#738,.F.);
#1025=ORIENTED_EDGE('',*,*,#739,.F.);
#1026=ORIENTED_EDGE('',*,*,#735,.F.);
#1027=ORIENTED_EDGE('',*,*,#609,.T.);
#1028=ORIENTED_EDGE('',*,*,#740,.T.);
#1029=ORIENTED_EDGE('',*,*,#741,.T.);
#1030=ORIENTED_EDGE('',*,*,#738,.T.);
#1031=ORIENTED_EDGE('',*,*,#608,.T.);
#1032=ORIENTED_EDGE('',*,*,#742,.F.);
#1033=ORIENTED_EDGE('',*,*,#743,.F.);
#1034=ORIENTED_EDGE('',*,*,#740,.F.);
#1035=ORIENTED_EDGE('',*,*,#613,.T.);
#1036=ORIENTED_EDGE('',*,*,#744,.T.);
#1037=ORIENTED_EDGE('',*,*,#745,.T.);
#1038=ORIENTED_EDGE('',*,*,#746,.T.);
#1039=ORIENTED_EDGE('',*,*,#612,.T.);
#1040=ORIENTED_EDGE('',*,*,#737,.F.);
#1041=ORIENTED_EDGE('',*,*,#747,.F.);
#1042=ORIENTED_EDGE('',*,*,#744,.F.);
#1043=ORIENTED_EDGE('',*,*,#607,.T.);
#1044=ORIENTED_EDGE('',*,*,#748,.T.);
#1045=ORIENTED_EDGE('',*,*,#749,.T.);
#1046=ORIENTED_EDGE('',*,*,#742,.T.);
#1047=ORIENTED_EDGE('',*,*,#614,.T.);
#1048=ORIENTED_EDGE('',*,*,#746,.F.);
#1049=ORIENTED_EDGE('',*,*,#750,.F.);
#1050=ORIENTED_EDGE('',*,*,#748,.F.);
#1051=ORIENTED_EDGE('',*,*,#751,.F.);
#1052=ORIENTED_EDGE('',*,*,#752,.F.);
#1053=ORIENTED_EDGE('',*,*,#753,.F.);
#1054=ORIENTED_EDGE('',*,*,#754,.F.);
#1055=ORIENTED_EDGE('',*,*,#752,.T.);
#1056=ORIENTED_EDGE('',*,*,#755,.T.);
#1057=ORIENTED_EDGE('',*,*,#756,.F.);
#1058=ORIENTED_EDGE('',*,*,#757,.F.);
#1059=ORIENTED_EDGE('',*,*,#751,.T.);
#1060=ORIENTED_EDGE('',*,*,#758,.T.);
#1061=ORIENTED_EDGE('',*,*,#759,.F.);
#1062=ORIENTED_EDGE('',*,*,#755,.F.);
#1063=ORIENTED_EDGE('',*,*,#747,.T.);
#1064=ORIENTED_EDGE('',*,*,#736,.F.);
#1065=ORIENTED_EDGE('',*,*,#739,.T.);
#1066=ORIENTED_EDGE('',*,*,#741,.F.);
#1067=ORIENTED_EDGE('',*,*,#743,.T.);
#1068=ORIENTED_EDGE('',*,*,#749,.F.);
#1069=ORIENTED_EDGE('',*,*,#750,.T.);
#1070=ORIENTED_EDGE('',*,*,#745,.F.);
#1071=ORIENTED_EDGE('',*,*,#753,.T.);
#1072=ORIENTED_EDGE('',*,*,#757,.T.);
#1073=ORIENTED_EDGE('',*,*,#760,.F.);
#1074=ORIENTED_EDGE('',*,*,#761,.F.);
#1075=ORIENTED_EDGE('',*,*,#754,.T.);
#1076=ORIENTED_EDGE('',*,*,#761,.T.);
#1077=ORIENTED_EDGE('',*,*,#762,.F.);
#1078=ORIENTED_EDGE('',*,*,#758,.F.);
#1079=ORIENTED_EDGE('',*,*,#759,.T.);
#1080=ORIENTED_EDGE('',*,*,#762,.T.);
#1081=ORIENTED_EDGE('',*,*,#760,.T.);
#1082=ORIENTED_EDGE('',*,*,#756,.T.);
#1083=ORIENTED_EDGE('',*,*,#763,.F.);
#1084=ORIENTED_EDGE('',*,*,#764,.F.);
#1085=ORIENTED_EDGE('',*,*,#765,.T.);
#1086=ORIENTED_EDGE('',*,*,#648,.F.);
#1087=ORIENTED_EDGE('',*,*,#765,.F.);
#1088=ORIENTED_EDGE('',*,*,#766,.F.);
#1089=ORIENTED_EDGE('',*,*,#767,.T.);
#1090=ORIENTED_EDGE('',*,*,#649,.F.);
#1091=ORIENTED_EDGE('',*,*,#767,.F.);
#1092=ORIENTED_EDGE('',*,*,#768,.F.);
#1093=ORIENTED_EDGE('',*,*,#769,.F.);
#1094=ORIENTED_EDGE('',*,*,#650,.F.);
#1095=ORIENTED_EDGE('',*,*,#769,.T.);
#1096=ORIENTED_EDGE('',*,*,#770,.F.);
#1097=ORIENTED_EDGE('',*,*,#763,.T.);
#1098=ORIENTED_EDGE('',*,*,#647,.F.);
#1099=ORIENTED_EDGE('',*,*,#639,.T.);
#1100=ORIENTED_EDGE('',*,*,#603,.T.);
#1101=ORIENTED_EDGE('',*,*,#642,.T.);
#1102=ORIENTED_EDGE('',*,*,#645,.T.);
#1103=ORIENTED_EDGE('',*,*,#770,.T.);
#1104=ORIENTED_EDGE('',*,*,#768,.T.);
#1105=ORIENTED_EDGE('',*,*,#766,.T.);
#1106=ORIENTED_EDGE('',*,*,#764,.T.);
#1107=PLANE('',#1248);
#1108=PLANE('',#1265);
#1109=PLANE('',#1266);
#1110=PLANE('',#1267);
#1111=PLANE('',#1268);
#1112=PLANE('',#1271);
#1113=PLANE('',#1274);
#1114=PLANE('',#1277);
#1115=PLANE('',#1280);
#1116=PLANE('',#1281);
#1117=PLANE('',#1282);
#1118=PLANE('',#1283);
#1119=PLANE('',#1284);
#1120=PLANE('',#1285);
#1121=PLANE('',#1286);
#1122=PLANE('',#1289);
#1123=PLANE('',#1292);
#1124=PLANE('',#1295);
#1125=PLANE('',#1298);
#1126=PLANE('',#1299);
#1127=PLANE('',#1300);
#1128=PLANE('',#1301);
#1129=PLANE('',#1302);
#1130=PLANE('',#1303);
#1131=PLANE('',#1304);
#1132=PLANE('',#1307);
#1133=PLANE('',#1310);
#1134=PLANE('',#1313);
#1135=PLANE('',#1316);
#1136=PLANE('',#1317);
#1137=PLANE('',#1318);
#1138=PLANE('',#1319);
#1139=PLANE('',#1320);
#1140=PLANE('',#1321);
#1141=PLANE('',#1322);
#1142=PLANE('',#1325);
#1143=PLANE('',#1328);
#1144=PLANE('',#1331);
#1145=PLANE('',#1334);
#1146=PLANE('',#1335);
#1147=PLANE('',#1336);
#1148=PLANE('',#1337);
#1149=PLANE('',#1338);
#1150=PLANE('',#1339);
#1151=PLANE('',#1340);
#1152=PLANE('',#1341);
#1153=PLANE('',#1342);
#1154=PLANE('',#1343);
#1155=PLANE('',#1344);
#1156=PLANE('',#1345);
#1157=PLANE('',#1346);
#1158=ADVANCED_FACE('',(#76,#35,#36,#37,#38),#1107,.T.);
#1159=ADVANCED_FACE('',(#77),#1108,.T.);
#1160=ADVANCED_FACE('',(#78),#1109,.T.);
#1161=ADVANCED_FACE('',(#79),#1110,.T.);
#1162=ADVANCED_FACE('',(#80,#39),#1111,.T.);
#1163=ADVANCED_FACE('',(#81),#19,.T.);
#1164=ADVANCED_FACE('',(#82),#1112,.T.);
#1165=ADVANCED_FACE('',(#83),#20,.T.);
#1166=ADVANCED_FACE('',(#84),#1113,.T.);
#1167=ADVANCED_FACE('',(#85),#21,.T.);
#1168=ADVANCED_FACE('',(#86),#1114,.T.);
#1169=ADVANCED_FACE('',(#87),#22,.T.);
#1170=ADVANCED_FACE('',(#88),#1115,.T.);
#1171=ADVANCED_FACE('',(#89),#1116,.F.);
#1172=ADVANCED_FACE('',(#90),#1117,.T.);
#1173=ADVANCED_FACE('',(#91,#40),#1118,.T.);
#1174=ADVANCED_FACE('',(#92),#1119,.T.);
#1175=ADVANCED_FACE('',(#93),#1120,.T.);
#1176=ADVANCED_FACE('',(#94),#1121,.T.);
#1177=ADVANCED_FACE('',(#95),#23,.T.);
#1178=ADVANCED_FACE('',(#96),#1122,.T.);
#1179=ADVANCED_FACE('',(#97),#24,.T.);
#1180=ADVANCED_FACE('',(#98),#1123,.T.);
#1181=ADVANCED_FACE('',(#99),#25,.T.);
#1182=ADVANCED_FACE('',(#100),#1124,.T.);
#1183=ADVANCED_FACE('',(#101),#26,.T.);
#1184=ADVANCED_FACE('',(#102),#1125,.T.);
#1185=ADVANCED_FACE('',(#103),#1126,.F.);
#1186=ADVANCED_FACE('',(#104),#1127,.T.);
#1187=ADVANCED_FACE('',(#105,#41),#1128,.T.);
#1188=ADVANCED_FACE('',(#106),#1129,.T.);
#1189=ADVANCED_FACE('',(#107),#1130,.T.);
#1190=ADVANCED_FACE('',(#108),#1131,.T.);
#1191=ADVANCED_FACE('',(#109),#27,.T.);
#1192=ADVANCED_FACE('',(#110),#1132,.T.);
#1193=ADVANCED_FACE('',(#111),#28,.T.);
#1194=ADVANCED_FACE('',(#112),#1133,.T.);
#1195=ADVANCED_FACE('',(#113),#29,.T.);
#1196=ADVANCED_FACE('',(#114),#1134,.T.);
#1197=ADVANCED_FACE('',(#115),#30,.T.);
#1198=ADVANCED_FACE('',(#116),#1135,.T.);
#1199=ADVANCED_FACE('',(#117),#1136,.F.);
#1200=ADVANCED_FACE('',(#118),#1137,.T.);
#1201=ADVANCED_FACE('',(#119,#42),#1138,.T.);
#1202=ADVANCED_FACE('',(#120),#1139,.T.);
#1203=ADVANCED_FACE('',(#121),#1140,.T.);
#1204=ADVANCED_FACE('',(#122),#1141,.T.);
#1205=ADVANCED_FACE('',(#123),#31,.T.);
#1206=ADVANCED_FACE('',(#124),#1142,.T.);
#1207=ADVANCED_FACE('',(#125),#32,.T.);
#1208=ADVANCED_FACE('',(#126),#1143,.T.);
#1209=ADVANCED_FACE('',(#127),#33,.T.);
#1210=ADVANCED_FACE('',(#128),#1144,.T.);
#1211=ADVANCED_FACE('',(#129),#34,.T.);
#1212=ADVANCED_FACE('',(#130),#1145,.T.);
#1213=ADVANCED_FACE('',(#131),#1146,.F.);
#1214=ADVANCED_FACE('',(#132),#1147,.T.);
#1215=ADVANCED_FACE('',(#133,#43),#1148,.T.);
#1216=ADVANCED_FACE('',(#134),#1149,.T.);
#1217=ADVANCED_FACE('',(#135),#1150,.T.);
#1218=ADVANCED_FACE('',(#136),#1151,.T.);
#1219=ADVANCED_FACE('',(#137),#1152,.T.);
#1220=ADVANCED_FACE('',(#138),#1153,.T.);
#1221=ADVANCED_FACE('',(#139),#1154,.T.);
#1222=ADVANCED_FACE('',(#140),#1155,.T.);
#1223=ADVANCED_FACE('',(#141),#1156,.T.);
#1224=ADVANCED_FACE('',(#142),#1157,.T.);
#1225=CLOSED_SHELL('',(#1158,#1159,#1160,#1161,#1162,#1163,#1164,#1165,
#1166,#1167,#1168,#1169,#1170,#1171,#1172,#1173,#1174,#1175,#1176,#1177,
#1178,#1179,#1180,#1181,#1182,#1183,#1184,#1185,#1186,#1187,#1188,#1189,
#1190,#1191,#1192,#1193,#1194,#1195,#1196,#1197,#1198,#1199,#1200,#1201,
#1202,#1203,#1204,#1205,#1206,#1207,#1208,#1209,#1210,#1211,#1212,#1213,
#1214,#1215,#1216,#1217,#1218,#1219,#1220,#1221,#1222,#1223,#1224));
#1226=DERIVED_UNIT_ELEMENT(#1229,1.);
#1227=DERIVED_UNIT_ELEMENT(#2036,-3.);
#1228=DIMENSIONAL_EXPONENTS(0.,1.,0.,0.,0.,0.,0.);
#1229=(
CONVERSION_BASED_UNIT('gram',#1231)
MASS_UNIT()
NAMED_UNIT(#1228)
);
#1230=(
MASS_UNIT()
NAMED_UNIT(*)
SI_UNIT(.KILO.,.GRAM.)
);
#1231=MASS_MEASURE_WITH_UNIT(MASS_MEASURE(0.001),#1230);
#1232=DERIVED_UNIT((#1226,#1227));
#1233=MEASURE_REPRESENTATION_ITEM('density measure',
POSITIVE_RATIO_MEASURE(1.),#1232);
#1234=PROPERTY_DEFINITION_REPRESENTATION(#1239,#1236);
#1235=PROPERTY_DEFINITION_REPRESENTATION(#1240,#1237);
#1236=REPRESENTATION('material name',(#1238),#2033);
#1237=REPRESENTATION('density',(#1233),#2033);
#1238=DESCRIPTIVE_REPRESENTATION_ITEM('Generic','Generic');
#1239=PROPERTY_DEFINITION('material property','material name',#2043);
#1240=PROPERTY_DEFINITION('material property','density of part',#2043);
#1241=DATE_TIME_ROLE('creation_date');
#1242=APPLIED_DATE_AND_TIME_ASSIGNMENT(#1243,#1241,(#2043));
#1243=DATE_AND_TIME(#1244,#1245);
#1244=CALENDAR_DATE(2025,22,1);
#1245=LOCAL_TIME(0,0,0.,#1246);
#1246=COORDINATED_UNIVERSAL_TIME_OFFSET(0,0,.BEHIND.);
#1247=AXIS2_PLACEMENT_3D('',#1683,#1347,#1348);
#1248=AXIS2_PLACEMENT_3D('',#1684,#1349,#1350);
#1249=AXIS2_PLACEMENT_3D('',#1695,#1355,#1356);
#1250=AXIS2_PLACEMENT_3D('',#1699,#1358,#1359);
#1251=AXIS2_PLACEMENT_3D('',#1703,#1361,#1362);
#1252=AXIS2_PLACEMENT_3D('',#1707,#1364,#1365);
#1253=AXIS2_PLACEMENT_3D('',#1711,#1367,#1368);
#1254=AXIS2_PLACEMENT_3D('',#1715,#1370,#1371);
#1255=AXIS2_PLACEMENT_3D('',#1719,#1373,#1374);
#1256=AXIS2_PLACEMENT_3D('',#1723,#1376,#1377);
#1257=AXIS2_PLACEMENT_3D('',#1727,#1379,#1380);
#1258=AXIS2_PLACEMENT_3D('',#1731,#1382,#1383);
#1259=AXIS2_PLACEMENT_3D('',#1735,#1385,#1386);
#1260=AXIS2_PLACEMENT_3D('',#1739,#1388,#1389);
#1261=AXIS2_PLACEMENT_3D('',#1743,#1391,#1392);
#1262=AXIS2_PLACEMENT_3D('',#1747,#1394,#1395);
#1263=AXIS2_PLACEMENT_3D('',#1751,#1397,#1398);
#1264=AXIS2_PLACEMENT_3D('',#1755,#1400,#1401);
#1265=AXIS2_PLACEMENT_3D('',#1757,#1403,#1404);
#1266=AXIS2_PLACEMENT_3D('',#1763,#1408,#1409);
#1267=AXIS2_PLACEMENT_3D('',#1769,#1413,#1414);
#1268=AXIS2_PLACEMENT_3D('',#1772,#1417,#1418);
#1269=AXIS2_PLACEMENT_3D('',#1781,#1423,#1424);
#1270=AXIS2_PLACEMENT_3D('',#1785,#1426,#1427);
#1271=AXIS2_PLACEMENT_3D('',#1787,#1429,#1430);
#1272=AXIS2_PLACEMENT_3D('',#1791,#1433,#1434);
#1273=AXIS2_PLACEMENT_3D('',#1794,#1436,#1437);
#1274=AXIS2_PLACEMENT_3D('',#1795,#1438,#1439);
#1275=AXIS2_PLACEMENT_3D('',#1799,#1442,#1443);
#1276=AXIS2_PLACEMENT_3D('',#1803,#1445,#1446);
#1277=AXIS2_PLACEMENT_3D('',#1805,#1448,#1449);
#1278=AXIS2_PLACEMENT_3D('',#1807,#1451,#1452);
#1279=AXIS2_PLACEMENT_3D('',#1810,#1454,#1455);
#1280=AXIS2_PLACEMENT_3D('',#1811,#1456,#1457);
#1281=AXIS2_PLACEMENT_3D('',#1813,#1459,#1460);
#1282=AXIS2_PLACEMENT_3D('',#1822,#1465,#1466);
#1283=AXIS2_PLACEMENT_3D('',#1828,#1470,#1471);
#1284=AXIS2_PLACEMENT_3D('',#1832,#1474,#1475);
#1285=AXIS2_PLACEMENT_3D('',#1836,#1478,#1479);
#1286=AXIS2_PLACEMENT_3D('',#1838,#1481,#1482);
#1287=AXIS2_PLACEMENT_3D('',#1839,#1483,#1484);
#1288=AXIS2_PLACEMENT_3D('',#1843,#1486,#1487);
#1289=AXIS2_PLACEMENT_3D('',#1845,#1489,#1490);
#1290=AXIS2_PLACEMENT_3D('',#1849,#1493,#1494);
#1291=AXIS2_PLACEMENT_3D('',#1852,#1496,#1497);
#1292=AXIS2_PLACEMENT_3D('',#1853,#1498,#1499);
#1293=AXIS2_PLACEMENT_3D('',#1857,#1502,#1503);
#1294=AXIS2_PLACEMENT_3D('',#1861,#1505,#1506);
#1295=AXIS2_PLACEMENT_3D('',#1863,#1508,#1509);
#1296=AXIS2_PLACEMENT_3D('',#1865,#1511,#1512);
#1297=AXIS2_PLACEMENT_3D('',#1868,#1514,#1515);
#1298=AXIS2_PLACEMENT_3D('',#1869,#1516,#1517);
#1299=AXIS2_PLACEMENT_3D('',#1871,#1519,#1520);
#1300=AXIS2_PLACEMENT_3D('',#1880,#1525,#1526);
#1301=AXIS2_PLACEMENT_3D('',#1886,#1530,#1531);
#1302=AXIS2_PLACEMENT_3D('',#1890,#1534,#1535);
#1303=AXIS2_PLACEMENT_3D('',#1894,#1538,#1539);
#1304=AXIS2_PLACEMENT_3D('',#1896,#1541,#1542);
#1305=AXIS2_PLACEMENT_3D('',#1897,#1543,#1544);
#1306=AXIS2_PLACEMENT_3D('',#1901,#1546,#1547);
#1307=AXIS2_PLACEMENT_3D('',#1903,#1549,#1550);
#1308=AXIS2_PLACEMENT_3D('',#1907,#1553,#1554);
#1309=AXIS2_PLACEMENT_3D('',#1910,#1556,#1557);
#1310=AXIS2_PLACEMENT_3D('',#1911,#1558,#1559);
#1311=AXIS2_PLACEMENT_3D('',#1915,#1562,#1563);
#1312=AXIS2_PLACEMENT_3D('',#1919,#1565,#1566);
#1313=AXIS2_PLACEMENT_3D('',#1921,#1568,#1569);
#1314=AXIS2_PLACEMENT_3D('',#1923,#1571,#1572);
#1315=AXIS2_PLACEMENT_3D('',#1926,#1574,#1575);
#1316=AXIS2_PLACEMENT_3D('',#1927,#1576,#1577);
#1317=AXIS2_PLACEMENT_3D('',#1929,#1579,#1580);
#1318=AXIS2_PLACEMENT_3D('',#1938,#1585,#1586);
#1319=AXIS2_PLACEMENT_3D('',#1944,#1590,#1591);
#1320=AXIS2_PLACEMENT_3D('',#1948,#1594,#1595);
#1321=AXIS2_PLACEMENT_3D('',#1952,#1598,#1599);
#1322=AXIS2_PLACEMENT_3D('',#1954,#1601,#1602);
#1323=AXIS2_PLACEMENT_3D('',#1955,#1603,#1604);
#1324=AXIS2_PLACEMENT_3D('',#1959,#1606,#1607);
#1325=AXIS2_PLACEMENT_3D('',#1961,#1609,#1610);
#1326=AXIS2_PLACEMENT_3D('',#1965,#1613,#1614);
#1327=AXIS2_PLACEMENT_3D('',#1968,#1616,#1617);
#1328=AXIS2_PLACEMENT_3D('',#1969,#1618,#1619);
#1329=AXIS2_PLACEMENT_3D('',#1973,#1622,#1623);
#1330=AXIS2_PLACEMENT_3D('',#1977,#1625,#1626);
#1331=AXIS2_PLACEMENT_3D('',#1979,#1628,#1629);
#1332=AXIS2_PLACEMENT_3D('',#1981,#1631,#1632);
#1333=AXIS2_PLACEMENT_3D('',#1984,#1634,#1635);
#1334=AXIS2_PLACEMENT_3D('',#1985,#1636,#1637);
#1335=AXIS2_PLACEMENT_3D('',#1987,#1639,#1640);
#1336=AXIS2_PLACEMENT_3D('',#1996,#1645,#1646);
#1337=AXIS2_PLACEMENT_3D('',#2002,#1650,#1651);
#1338=AXIS2_PLACEMENT_3D('',#2006,#1654,#1655);
#1339=AXIS2_PLACEMENT_3D('',#2010,#1658,#1659);
#1340=AXIS2_PLACEMENT_3D('',#2012,#1661,#1662);
#1341=AXIS2_PLACEMENT_3D('',#2013,#1663,#1664);
#1342=AXIS2_PLACEMENT_3D('',#2019,#1668,#1669);
#1343=AXIS2_PLACEMENT_3D('',#2023,#1672,#1673);
#1344=AXIS2_PLACEMENT_3D('',#2027,#1676,#1677);
#1345=AXIS2_PLACEMENT_3D('',#2029,#1679,#1680);
#1346=AXIS2_PLACEMENT_3D('',#2030,#1681,#1682);
#1347=DIRECTION('axis',(0.,0.,1.));
#1348=DIRECTION('refdir',(1.,0.,0.));
#1349=DIRECTION('center_axis',(-1.,0.,2.37904933848248E-16));
#1350=DIRECTION('ref_axis',(2.37904933848248E-16,0.,1.));
#1351=DIRECTION('',(-2.37904933848248E-16,0.,-1.));
#1352=DIRECTION('',(0.,1.,0.));
#1353=DIRECTION('',(2.37904933848248E-16,0.,1.));
#1354=DIRECTION('',(0.,1.,0.));
#1355=DIRECTION('center_axis',(-1.,0.,2.37904933848248E-16));
#1356=DIRECTION('ref_axis',(0.,-0.707106781186548,-0.707106781186548));
#1357=DIRECTION('',(0.,-1.,0.));
#1358=DIRECTION('center_axis',(-1.,0.,2.37904933848248E-16));
#1359=DIRECTION('ref_axis',(0.,0.707106781186548,-0.707106781186548));
#1360=DIRECTION('',(-2.37904933848248E-16,0.,-1.));
#1361=DIRECTION('center_axis',(-1.,0.,2.37904933848248E-16));
#1362=DIRECTION('ref_axis',(0.,0.707106781186548,0.707106781186548));
#1363=DIRECTION('',(0.,1.,0.));
#1364=DIRECTION('center_axis',(-1.,0.,2.37904933848248E-16));
#1365=DIRECTION('ref_axis',(0.,-0.707106781186548,0.707106781186548));
#1366=DIRECTION('',(2.37904933848248E-16,-2.22044604925032E-16,1.));
#1367=DIRECTION('center_axis',(-1.,0.,2.37904933848248E-16));
#1368=DIRECTION('ref_axis',(0.,-0.707106781186548,-0.707106781186548));
#1369=DIRECTION('',(0.,-1.,0.));
#1370=DIRECTION('center_axis',(-1.,0.,2.37904933848248E-16));
#1371=DIRECTION('ref_axis',(0.,0.707106781186548,-0.707106781186548));
#1372=DIRECTION('',(-2.37904933848248E-16,0.,-1.));
#1373=DIRECTION('center_axis',(-1.,0.,2.37904933848248E-16));
#1374=DIRECTION('ref_axis',(0.,0.707106781186548,0.707106781186548));
#1375=DIRECTION('',(0.,1.,0.));
#1376=DIRECTION('center_axis',(-1.,0.,2.37904933848248E-16));
#1377=DIRECTION('ref_axis',(0.,-0.707106781186548,0.707106781186548));
#1378=DIRECTION('',(2.37904933848248E-16,-1.98254111540207E-16,1.));
#1379=DIRECTION('center_axis',(-1.,0.,2.37904933848248E-16));
#1380=DIRECTION('ref_axis',(0.,-0.707106781186548,-0.707106781186548));
#1381=DIRECTION('',(0.,-1.,0.));
#1382=DIRECTION('center_axis',(-1.,0.,2.37904933848248E-16));
#1383=DIRECTION('ref_axis',(0.,0.707106781186548,-0.707106781186548));
#1384=DIRECTION('',(-2.37904933848248E-16,0.,-1.));
#1385=DIRECTION('center_axis',(-1.,0.,2.37904933848248E-16));
#1386=DIRECTION('ref_axis',(0.,0.707106781186548,0.707106781186548));
#1387=DIRECTION('',(0.,1.,0.));
#1388=DIRECTION('center_axis',(-1.,0.,2.37904933848248E-16));
#1389=DIRECTION('ref_axis',(0.,-0.707106781186547,0.707106781186548));
#1390=DIRECTION('',(2.37904933848248E-16,0.,1.));
#1391=DIRECTION('center_axis',(-1.,0.,2.37904933848248E-16));
#1392=DIRECTION('ref_axis',(0.,-0.707106781186548,-0.707106781186548));
#1393=DIRECTION('',(0.,-1.,0.));
#1394=DIRECTION('center_axis',(-1.,0.,2.37904933848248E-16));
#1395=DIRECTION('ref_axis',(0.,0.707106781186548,-0.707106781186548));
#1396=DIRECTION('',(-2.37904933848248E-16,4.62592926927149E-17,-1.));
#1397=DIRECTION('center_axis',(-1.,0.,2.37904933848248E-16));
#1398=DIRECTION('ref_axis',(0.,0.707106781186548,0.707106781186548));
#1399=DIRECTION('',(5.77778983316171E-32,1.,2.42861286636753E-16));
#1400=DIRECTION('center_axis',(-1.,0.,2.37904933848248E-16));
#1401=DIRECTION('ref_axis',(0.,-0.707106781186548,0.707106781186548));
#1402=DIRECTION('',(2.37904933848248E-16,-1.85037170770859E-16,1.));
#1403=DIRECTION('center_axis',(-1.85037170770859E-16,0.,-1.));
#1404=DIRECTION('ref_axis',(-1.,0.,1.85037170770859E-16));
#1405=DIRECTION('',(1.,0.,-1.85037170770859E-16));
#1406=DIRECTION('',(0.,1.,0.));
#1407=DIRECTION('',(-1.,0.,1.85037170770859E-16));
#1408=DIRECTION('center_axis',(0.,0.,1.));
#1409=DIRECTION('ref_axis',(1.,0.,0.));
#1410=DIRECTION('',(-1.,0.,0.));
#1411=DIRECTION('',(1.,0.,0.));
#1412=DIRECTION('',(0.,1.,0.));
#1413=DIRECTION('center_axis',(1.,0.,-1.18952466924124E-16));
#1414=DIRECTION('ref_axis',(-1.18952466924124E-16,0.,-1.));
#1415=DIRECTION('',(1.18952466924124E-16,0.,1.));
#1416=DIRECTION('',(-1.18952466924124E-16,0.,-1.));
#1417=DIRECTION('center_axis',(0.,1.,0.));
#1418=DIRECTION('ref_axis',(0.,0.,1.));
#1419=DIRECTION('',(-3.37893964016352E-16,0.,-1.));
#1420=DIRECTION('',(-1.,0.,2.77555756156289E-16));
#1421=DIRECTION('',(2.41352831440251E-16,0.,1.));
#1422=DIRECTION('',(1.,0.,-2.77555756156289E-16));
#1423=DIRECTION('center_axis',(1.,0.,0.));
#1424=DIRECTION('ref_axis',(0.,0.707106781186548,0.707106781186548));
#1425=DIRECTION('',(-1.,0.,0.));
#1426=DIRECTION('center_axis',(-1.,0.,1.38777878078145E-16));
#1427=DIRECTION('ref_axis',(0.,0.707106781186548,0.707106781186548));
#1428=DIRECTION('',(1.,0.,0.));
#1429=DIRECTION('center_axis',(0.,1.,4.62592926927149E-17));
#1430=DIRECTION('ref_axis',(1.38777878078145E-16,-4.62592926927149E-17,
1.));
#1431=DIRECTION('',(1.,0.,0.));
#1432=DIRECTION('',(-1.38777878078145E-16,4.62592926927149E-17,-1.));
#1433=DIRECTION('center_axis',(1.,0.,0.));
#1434=DIRECTION('ref_axis',(0.,0.707106781186548,-0.707106781186548));
#1435=DIRECTION('',(-1.,0.,0.));
#1436=DIRECTION('center_axis',(-1.,0.,1.38777878078145E-16));
#1437=DIRECTION('ref_axis',(0.,0.707106781186548,-0.707106781186548));
#1438=DIRECTION('center_axis',(0.,0.,-1.));
#1439=DIRECTION('ref_axis',(0.,1.,0.));
#1440=DIRECTION('',(1.,0.,0.));
#1441=DIRECTION('',(0.,-1.,0.));
#1442=DIRECTION('center_axis',(1.,0.,0.));
#1443=DIRECTION('ref_axis',(0.,-0.707106781186548,0.707106781186548));
#1444=DIRECTION('',(-1.,0.,0.));
#1445=DIRECTION('center_axis',(-1.,0.,1.38777878078145E-16));
#1446=DIRECTION('ref_axis',(0.,-0.707106781186548,0.707106781186548));
#1447=DIRECTION('',(1.,0.,0.));
#1448=DIRECTION('center_axis',(0.,-2.42861286636753E-16,1.));
#1449=DIRECTION('ref_axis',(-3.37037740267766E-32,-1.,-2.42861286636753E-16));
#1450=DIRECTION('',(3.37037740267766E-32,1.,2.42861286636753E-16));
#1451=DIRECTION('center_axis',(1.,0.,0.));
#1452=DIRECTION('ref_axis',(0.,-0.707106781186548,-0.707106781186548));
#1453=DIRECTION('',(-1.,0.,0.));
#1454=DIRECTION('center_axis',(-1.,0.,1.38777878078145E-16));
#1455=DIRECTION('ref_axis',(0.,-0.707106781186548,-0.707106781186548));
#1456=DIRECTION('center_axis',(0.,-1.,-1.85037170770859E-16));
#1457=DIRECTION('ref_axis',(-1.38777878078145E-16,1.85037170770859E-16,
-1.));
#1458=DIRECTION('',(1.38777878078145E-16,-1.85037170770859E-16,1.));
#1459=DIRECTION('center_axis',(0.,1.,0.));
#1460=DIRECTION('ref_axis',(0.,0.,1.));
#1461=DIRECTION('',(-1.38777878078145E-16,0.,-1.));
#1462=DIRECTION('',(1.,0.,-2.77555756156289E-16));
#1463=DIRECTION('',(6.93889390390723E-17,0.,1.));
#1464=DIRECTION('',(-1.,0.,1.38777878078144E-16));
#1465=DIRECTION('center_axis',(2.77555756156289E-16,0.,1.));
#1466=DIRECTION('ref_axis',(1.,0.,-2.77555756156289E-16));
#1467=DIRECTION('',(0.,1.,0.));
#1468=DIRECTION('',(1.,0.,-2.77555756156289E-16));
#1469=DIRECTION('',(0.,1.,0.));
#1470=DIRECTION('center_axis',(1.,0.,-1.38777878078145E-16));
#1471=DIRECTION('ref_axis',(-1.38777878078145E-16,0.,-1.));
#1472=DIRECTION('',(0.,1.,0.));
#1473=DIRECTION('',(-1.38777878078145E-16,0.,-1.));
#1474=DIRECTION('center_axis',(-1.,0.,6.93889390390723E-17));
#1475=DIRECTION('ref_axis',(6.93889390390723E-17,0.,1.));
#1476=DIRECTION('',(6.93889390390723E-17,0.,1.));
#1477=DIRECTION('',(0.,1.,0.));
#1478=DIRECTION('center_axis',(-1.38777878078144E-16,0.,-1.));
#1479=DIRECTION('ref_axis',(-1.,0.,1.38777878078144E-16));
#1480=DIRECTION('',(-1.,0.,1.38777878078144E-16));
#1481=DIRECTION('center_axis',(0.,1.,0.));
#1482=DIRECTION('ref_axis',(0.,0.,1.));
#1483=DIRECTION('center_axis',(1.,0.,-1.38777878078145E-16));
#1484=DIRECTION('ref_axis',(0.,0.707106781186548,0.707106781186548));
#1485=DIRECTION('',(-1.,0.,1.38777878078145E-16));
#1486=DIRECTION('center_axis',(-1.,0.,1.42336285208353E-16));
#1487=DIRECTION('ref_axis',(0.,0.707106781186548,0.707106781186548));
#1488=DIRECTION('',(1.,0.,-1.38777878078145E-16));
#1489=DIRECTION('center_axis',(0.,1.,0.));
#1490=DIRECTION('ref_axis',(1.38777878078145E-16,0.,1.));
#1491=DIRECTION('',(1.,0.,-1.38777878078145E-16));
#1492=DIRECTION('',(-1.42336285208353E-16,0.,-1.));
#1493=DIRECTION('center_axis',(1.,0.,-1.38777878078145E-16));
#1494=DIRECTION('ref_axis',(0.,0.707106781186548,-0.707106781186548));
#1495=DIRECTION('',(-1.,0.,1.38777878078145E-16));
#1496=DIRECTION('center_axis',(-1.,0.,1.42336285208353E-16));
#1497=DIRECTION('ref_axis',(0.,0.707106781186548,-0.707106781186548));
#1498=DIRECTION('center_axis',(-1.38777878078145E-16,0.,-1.));
#1499=DIRECTION('ref_axis',(0.,1.,0.));
#1500=DIRECTION('',(1.,0.,-1.38777878078145E-16));
#1501=DIRECTION('',(0.,-1.,0.));
#1502=DIRECTION('center_axis',(1.,0.,-1.38777878078145E-16));
#1503=DIRECTION('ref_axis',(0.,-0.707106781186547,0.707106781186548));
#1504=DIRECTION('',(-1.,0.,1.38777878078145E-16));
#1505=DIRECTION('center_axis',(-1.,0.,1.42336285208353E-16));
#1506=DIRECTION('ref_axis',(0.,-0.707106781186547,0.707106781186548));
#1507=DIRECTION('',(1.,0.,-1.38777878078145E-16));
#1508=DIRECTION('center_axis',(1.38777878078145E-16,0.,1.));
#1509=DIRECTION('ref_axis',(0.,-1.,0.));
#1510=DIRECTION('',(0.,1.,0.));
#1511=DIRECTION('center_axis',(1.,0.,-1.38777878078145E-16));
#1512=DIRECTION('ref_axis',(0.,-0.707106781186548,-0.707106781186548));
#1513=DIRECTION('',(-1.,0.,1.38777878078145E-16));
#1514=DIRECTION('center_axis',(-1.,0.,1.42336285208353E-16));
#1515=DIRECTION('ref_axis',(0.,-0.707106781186548,-0.707106781186548));
#1516=DIRECTION('center_axis',(0.,-1.,0.));
#1517=DIRECTION('ref_axis',(-1.38777878078145E-16,0.,-1.));
#1518=DIRECTION('',(1.42336285208353E-16,0.,1.));
#1519=DIRECTION('center_axis',(0.,1.,0.));
#1520=DIRECTION('ref_axis',(0.,0.,1.));
#1521=DIRECTION('',(-1.42336285208353E-16,0.,-1.));
#1522=DIRECTION('',(1.,0.,-2.84672570416707E-16));
#1523=DIRECTION('',(1.42336285208353E-16,0.,1.));
#1524=DIRECTION('',(-1.,0.,1.42336285208353E-16));
#1525=DIRECTION('center_axis',(2.84672570416707E-16,0.,1.));
#1526=DIRECTION('ref_axis',(1.,0.,-2.84672570416707E-16));
#1527=DIRECTION('',(0.,1.,0.));
#1528=DIRECTION('',(1.,0.,-2.84672570416707E-16));
#1529=DIRECTION('',(0.,1.,0.));
#1530=DIRECTION('center_axis',(1.,0.,-1.42336285208353E-16));
#1531=DIRECTION('ref_axis',(-1.42336285208353E-16,0.,-1.));
#1532=DIRECTION('',(0.,1.,0.));
#1533=DIRECTION('',(-1.42336285208353E-16,0.,-1.));
#1534=DIRECTION('center_axis',(-1.,0.,1.42336285208353E-16));
#1535=DIRECTION('ref_axis',(1.42336285208353E-16,0.,1.));
#1536=DIRECTION('',(1.42336285208353E-16,0.,1.));
#1537=DIRECTION('',(0.,1.,0.));
#1538=DIRECTION('center_axis',(-1.42336285208353E-16,0.,-1.));
#1539=DIRECTION('ref_axis',(-1.,0.,1.42336285208353E-16));
#1540=DIRECTION('',(-1.,0.,1.42336285208353E-16));
#1541=DIRECTION('center_axis',(0.,1.,0.));
#1542=DIRECTION('ref_axis',(0.,0.,1.));
#1543=DIRECTION('center_axis',(1.,0.,0.));
#1544=DIRECTION('ref_axis',(0.,0.707106781186548,0.707106781186548));
#1545=DIRECTION('',(-1.,0.,0.));
#1546=DIRECTION('center_axis',(-1.,0.,4.38245930773089E-16));
#1547=DIRECTION('ref_axis',(0.,0.707106781186548,0.707106781186548));
#1548=DIRECTION('',(1.,0.,0.));
#1549=DIRECTION('center_axis',(0.,1.,0.));
#1550=DIRECTION('ref_axis',(1.38777878078145E-16,0.,1.));
#1551=DIRECTION('',(1.,0.,0.));
#1552=DIRECTION('',(-4.38245930773089E-16,0.,-1.));
#1553=DIRECTION('center_axis',(1.,0.,0.));
#1554=DIRECTION('ref_axis',(0.,0.707106781186548,-0.707106781186548));
#1555=DIRECTION('',(-1.,0.,0.));
#1556=DIRECTION('center_axis',(-1.,0.,4.38245930773089E-16));
#1557=DIRECTION('ref_axis',(0.,0.707106781186548,-0.707106781186548));
#1558=DIRECTION('center_axis',(0.,0.,-1.));
#1559=DIRECTION('ref_axis',(0.,1.,0.));
#1560=DIRECTION('',(1.,0.,0.));
#1561=DIRECTION('',(0.,-1.,0.));
#1562=DIRECTION('center_axis',(1.,0.,0.));
#1563=DIRECTION('ref_axis',(0.,-0.707106781186548,0.707106781186548));
#1564=DIRECTION('',(-1.,0.,0.));
#1565=DIRECTION('center_axis',(-1.,0.,4.38245930773089E-16));
#1566=DIRECTION('ref_axis',(0.,-0.707106781186548,0.707106781186548));
#1567=DIRECTION('',(1.,0.,0.));
#1568=DIRECTION('center_axis',(0.,0.,1.));
#1569=DIRECTION('ref_axis',(0.,-1.,0.));
#1570=DIRECTION('',(0.,1.,0.));
#1571=DIRECTION('center_axis',(1.,0.,0.));
#1572=DIRECTION('ref_axis',(0.,-0.707106781186548,-0.707106781186548));
#1573=DIRECTION('',(-1.,0.,0.));
#1574=DIRECTION('center_axis',(-1.,0.,4.38245930773089E-16));
#1575=DIRECTION('ref_axis',(0.,-0.707106781186548,-0.707106781186548));
#1576=DIRECTION('center_axis',(0.,-1.,-1.98254111540207E-16));
#1577=DIRECTION('ref_axis',(-1.38777878078145E-16,1.98254111540207E-16,
-1.));
#1578=DIRECTION('',(4.38245930773089E-16,-1.98254111540207E-16,1.));
#1579=DIRECTION('center_axis',(0.,1.,0.));
#1580=DIRECTION('ref_axis',(0.,0.,1.));
#1581=DIRECTION('',(-4.38245930773089E-16,0.,-1.));
#1582=DIRECTION('',(1.,0.,-8.76491861546176E-16));
#1583=DIRECTION('',(4.19985683657543E-16,0.,1.));
#1584=DIRECTION('',(-1.,0.,0.));
#1585=DIRECTION('center_axis',(8.76491861546176E-16,0.,1.));
#1586=DIRECTION('ref_axis',(1.,0.,-8.76491861546176E-16));
#1587=DIRECTION('',(0.,1.,0.));
#1588=DIRECTION('',(1.,0.,-8.76491861546176E-16));
#1589=DIRECTION('',(0.,1.,0.));
#1590=DIRECTION('center_axis',(1.,0.,-4.38245930773089E-16));
#1591=DIRECTION('ref_axis',(-4.38245930773089E-16,0.,-1.));
#1592=DIRECTION('',(0.,1.,0.));
#1593=DIRECTION('',(-4.38245930773089E-16,0.,-1.));
#1594=DIRECTION('center_axis',(-1.,0.,4.19985683657543E-16));
#1595=DIRECTION('ref_axis',(4.19985683657543E-16,0.,1.));
#1596=DIRECTION('',(4.19985683657543E-16,0.,1.));
#1597=DIRECTION('',(0.,1.,0.));
#1598=DIRECTION('center_axis',(0.,0.,-1.));
#1599=DIRECTION('ref_axis',(-1.,0.,0.));
#1600=DIRECTION('',(-1.,0.,0.));
#1601=DIRECTION('center_axis',(0.,1.,0.));
#1602=DIRECTION('ref_axis',(0.,0.,1.));
#1603=DIRECTION('center_axis',(1.,0.,0.));
#1604=DIRECTION('ref_axis',(0.,0.707106781186548,0.707106781186548));
#1605=DIRECTION('',(-1.,0.,0.));
#1606=DIRECTION('center_axis',(-1.,0.,4.75809867696496E-16));
#1607=DIRECTION('ref_axis',(0.,0.707106781186548,0.707106781186548));
#1608=DIRECTION('',(1.,0.,0.));
#1609=DIRECTION('center_axis',(0.,1.,0.));
#1610=DIRECTION('ref_axis',(1.38777878078145E-16,0.,1.));
#1611=DIRECTION('',(1.,0.,0.));
#1612=DIRECTION('',(-4.75809867696496E-16,0.,-1.));
#1613=DIRECTION('center_axis',(1.,0.,0.));
#1614=DIRECTION('ref_axis',(0.,0.707106781186548,-0.707106781186548));
#1615=DIRECTION('',(-1.,0.,0.));
#1616=DIRECTION('center_axis',(-1.,0.,4.75809867696496E-16));
#1617=DIRECTION('ref_axis',(0.,0.707106781186548,-0.707106781186548));
#1618=DIRECTION('center_axis',(0.,0.,-1.));
#1619=DIRECTION('ref_axis',(0.,1.,0.));
#1620=DIRECTION('',(1.,0.,0.));
#1621=DIRECTION('',(0.,-1.,0.));
#1622=DIRECTION('center_axis',(1.,0.,0.));
#1623=DIRECTION('ref_axis',(0.,-0.707106781186548,0.707106781186548));
#1624=DIRECTION('',(-1.,0.,0.));
#1625=DIRECTION('center_axis',(-1.,0.,4.75809867696496E-16));
#1626=DIRECTION('ref_axis',(0.,-0.707106781186548,0.707106781186548));
#1627=DIRECTION('',(1.,0.,0.));
#1628=DIRECTION('center_axis',(0.,0.,1.));
#1629=DIRECTION('ref_axis',(0.,-1.,0.));
#1630=DIRECTION('',(0.,1.,0.));
#1631=DIRECTION('center_axis',(1.,0.,0.));
#1632=DIRECTION('ref_axis',(0.,-0.707106781186548,-0.707106781186548));
#1633=DIRECTION('',(-1.,0.,0.));
#1634=DIRECTION('center_axis',(-1.,0.,4.75809867696496E-16));
#1635=DIRECTION('ref_axis',(0.,-0.707106781186548,-0.707106781186548));
#1636=DIRECTION('center_axis',(0.,-1.,-2.22044604925032E-16));
#1637=DIRECTION('ref_axis',(-1.38777878078145E-16,2.22044604925032E-16,
-1.));
#1638=DIRECTION('',(4.75809867696496E-16,-2.22044604925032E-16,1.));
#1639=DIRECTION('center_axis',(0.,1.,0.));
#1640=DIRECTION('ref_axis',(0.,0.,1.));
#1641=DIRECTION('',(-4.75809867696496E-16,0.,-1.));
#1642=DIRECTION('',(1.,0.,-6.34413156928661E-16));
#1643=DIRECTION('',(4.26246339811444E-16,0.,1.));
#1644=DIRECTION('',(-1.,0.,0.));
#1645=DIRECTION('center_axis',(6.34413156928661E-16,0.,1.));
#1646=DIRECTION('ref_axis',(1.,0.,-6.34413156928661E-16));
#1647=DIRECTION('',(0.,1.,0.));
#1648=DIRECTION('',(1.,0.,-6.34413156928661E-16));
#1649=DIRECTION('',(0.,1.,0.));
#1650=DIRECTION('center_axis',(1.,0.,-4.75809867696496E-16));
#1651=DIRECTION('ref_axis',(-4.75809867696496E-16,0.,-1.));
#1652=DIRECTION('',(0.,1.,0.));
#1653=DIRECTION('',(-4.75809867696496E-16,0.,-1.));
#1654=DIRECTION('center_axis',(-1.,0.,4.26246339811444E-16));
#1655=DIRECTION('ref_axis',(4.26246339811444E-16,0.,1.));
#1656=DIRECTION('',(4.26246339811444E-16,0.,1.));
#1657=DIRECTION('',(0.,1.,0.));
#1658=DIRECTION('center_axis',(0.,0.,-1.));
#1659=DIRECTION('ref_axis',(-1.,0.,0.));
#1660=DIRECTION('',(-1.,0.,0.));
#1661=DIRECTION('center_axis',(0.,1.,0.));
#1662=DIRECTION('ref_axis',(0.,0.,1.));
#1663=DIRECTION('center_axis',(-2.77555756156289E-16,0.,-1.));
#1664=DIRECTION('ref_axis',(1.,0.,-2.77555756156289E-16));
#1665=DIRECTION('',(0.,1.,0.));
#1666=DIRECTION('',(1.,0.,-2.77555756156289E-16));
#1667=DIRECTION('',(0.,1.,0.));
#1668=DIRECTION('center_axis',(-1.,0.,2.41352831440251E-16));
#1669=DIRECTION('ref_axis',(-2.41352831440251E-16,0.,-1.));
#1670=DIRECTION('',(-2.41352831440251E-16,0.,-1.));
#1671=DIRECTION('',(0.,1.,0.));
#1672=DIRECTION('center_axis',(2.77555756156289E-16,0.,1.));
#1673=DIRECTION('ref_axis',(-1.,0.,2.77555756156289E-16));
#1674=DIRECTION('',(-1.,0.,2.77555756156289E-16));
#1675=DIRECTION('',(0.,-1.,0.));
#1676=DIRECTION('center_axis',(1.,0.,-3.37893964016352E-16));
#1677=DIRECTION('ref_axis',(3.37893964016352E-16,0.,1.));
#1678=DIRECTION('',(3.37893964016352E-16,0.,1.));
#1679=DIRECTION('center_axis',(0.,1.,0.));
#1680=DIRECTION('ref_axis',(0.,0.,1.));
#1681=DIRECTION('center_axis',(0.,-1.,0.));
#1682=DIRECTION('ref_axis',(0.,0.,-1.));
#1683=CARTESIAN_POINT('',(0.,0.,0.));
#1684=CARTESIAN_POINT('Origin',(4.36458342914129,0.,-12.9302884615385));
#1685=CARTESIAN_POINT('',(4.3645834291413,0.,8.06971153846154));
#1686=CARTESIAN_POINT('',(4.36458342914129,0.,-12.9302884615385));
#1687=CARTESIAN_POINT('',(4.36458342914129,0.,-7.68028846153846));
#1688=CARTESIAN_POINT('',(4.3645834291413,5.,8.06971153846154));
#1689=CARTESIAN_POINT('',(4.3645834291413,0.,8.06971153846154));
#1690=CARTESIAN_POINT('',(4.36458342914129,5.,-12.9302884615385));
#1691=CARTESIAN_POINT('',(4.36458342914129,5.,-12.9302884615385));
#1692=CARTESIAN_POINT('',(4.36458342914129,0.,-12.9302884615385));
#1693=CARTESIAN_POINT('',(4.36458342914129,1.7,-10.6302884615385));
#1694=CARTESIAN_POINT('',(4.36458342914129,1.5,-10.4302884615385));
#1695=CARTESIAN_POINT('Origin',(4.36458342914129,1.7,-10.4302884615385));
#1696=CARTESIAN_POINT('',(4.36458342914129,2.8,-10.6302884615385));
#1697=CARTESIAN_POINT('',(4.36458342914129,0.75,-10.6302884615385));
#1698=CARTESIAN_POINT('',(4.36458342914129,3.,-10.4302884615385));
#1699=CARTESIAN_POINT('Origin',(4.36458342914129,2.8,-10.4302884615385));
#1700=CARTESIAN_POINT('',(4.36458342914129,3.,-8.33028846153846));
#1701=CARTESIAN_POINT('',(4.36458342914129,3.,-11.7802884615385));
#1702=CARTESIAN_POINT('',(4.36458342914129,2.8,-8.13028846153846));
#1703=CARTESIAN_POINT('Origin',(4.36458342914129,2.8,-8.33028846153846));
#1704=CARTESIAN_POINT('',(4.36458342914129,1.7,-8.13028846153846));
#1705=CARTESIAN_POINT('',(4.36458342914129,1.5,-8.13028846153846));
#1706=CARTESIAN_POINT('',(4.36458342914129,1.5,-8.33028846153846));
#1707=CARTESIAN_POINT('Origin',(4.36458342914129,1.7,-8.33028846153846));
#1708=CARTESIAN_POINT('',(4.36458342914129,1.5,-10.5302884615385));
#1709=CARTESIAN_POINT('',(4.36458342914129,1.5,-6.13028846153846));
#1710=CARTESIAN_POINT('',(4.36458342914129,1.3,-5.93028846153846));
#1711=CARTESIAN_POINT('Origin',(4.36458342914129,1.5,-5.93028846153846));
#1712=CARTESIAN_POINT('',(4.36458342914129,2.9,-6.13028846153846));
#1713=CARTESIAN_POINT('',(4.36458342914129,0.65,-6.13028846153846));
#1714=CARTESIAN_POINT('',(4.36458342914129,3.1,-5.93028846153846));
#1715=CARTESIAN_POINT('Origin',(4.36458342914129,2.9,-5.93028846153846));
#1716=CARTESIAN_POINT('',(4.36458342914129,3.1,-3.53028846153846));
#1717=CARTESIAN_POINT('',(4.36458342914129,3.1,-9.53028846153846));
#1718=CARTESIAN_POINT('',(4.36458342914129,2.9,-3.33028846153846));
#1719=CARTESIAN_POINT('Origin',(4.36458342914129,2.9,-3.53028846153846));
#1720=CARTESIAN_POINT('',(4.36458342914129,1.5,-3.33028846153846));
#1721=CARTESIAN_POINT('',(4.36458342914129,1.55,-3.33028846153846));
#1722=CARTESIAN_POINT('',(4.36458342914129,1.3,-3.53028846153846));
#1723=CARTESIAN_POINT('Origin',(4.36458342914129,1.5,-3.53028846153846));
#1724=CARTESIAN_POINT('',(4.36458342914129,1.3,-8.13028846153846));
#1725=CARTESIAN_POINT('',(4.36458342914129,1.1,-1.33028846153846));
#1726=CARTESIAN_POINT('',(4.36458342914129,0.9,-1.13028846153846));
#1727=CARTESIAN_POINT('Origin',(4.36458342914129,1.1,-1.13028846153846));
#1728=CARTESIAN_POINT('',(4.36458342914129,2.6,-1.33028846153846));
#1729=CARTESIAN_POINT('',(4.36458342914129,0.45,-1.33028846153846));
#1730=CARTESIAN_POINT('',(4.36458342914129,2.8,-1.13028846153846));
#1731=CARTESIAN_POINT('Origin',(4.36458342914129,2.6,-1.13028846153846));
#1732=CARTESIAN_POINT('',(4.36458342914129,2.8,1.36971153846154));
#1733=CARTESIAN_POINT('',(4.36458342914129,2.8,-7.13028846153846));
#1734=CARTESIAN_POINT('',(4.36458342914129,2.6,1.56971153846154));
#1735=CARTESIAN_POINT('Origin',(4.36458342914129,2.6,1.36971153846154));
#1736=CARTESIAN_POINT('',(4.36458342914129,1.1,1.56971153846154));
#1737=CARTESIAN_POINT('',(4.36458342914129,1.4,1.56971153846154));
#1738=CARTESIAN_POINT('',(4.36458342914129,0.9,1.36971153846154));
#1739=CARTESIAN_POINT('Origin',(4.36458342914129,1.1,1.36971153846154));
#1740=CARTESIAN_POINT('',(4.36458342914129,0.9,-5.68028846153846));
#1741=CARTESIAN_POINT('',(4.36458342914129,1.3,3.56971153846154));
#1742=CARTESIAN_POINT('',(4.36458342914129,1.1,3.76971153846154));
#1743=CARTESIAN_POINT('Origin',(4.36458342914129,1.3,3.76971153846154));
#1744=CARTESIAN_POINT('',(4.36458342914129,2.9,3.56971153846154));
#1745=CARTESIAN_POINT('',(4.36458342914129,0.55,3.56971153846154));
#1746=CARTESIAN_POINT('',(4.36458342914129,3.1,3.76971153846154));
#1747=CARTESIAN_POINT('Origin',(4.36458342914129,2.9,3.76971153846154));
#1748=CARTESIAN_POINT('',(4.36458342914129,3.1,6.36971153846154));
#1749=CARTESIAN_POINT('',(4.36458342914129,3.1,-4.68028846153846));
#1750=CARTESIAN_POINT('',(4.36458342914129,2.9,6.56971153846154));
#1751=CARTESIAN_POINT('Origin',(4.36458342914129,2.9,6.36971153846154));
#1752=CARTESIAN_POINT('',(4.36458342914129,1.3,6.56971153846154));
#1753=CARTESIAN_POINT('',(4.36458342914129,1.55,6.56971153846154));
#1754=CARTESIAN_POINT('',(4.36458342914129,1.1,6.36971153846154));
#1755=CARTESIAN_POINT('Origin',(4.36458342914129,1.3,6.36971153846154));
#1756=CARTESIAN_POINT('',(4.36458342914129,1.1,-3.18028846153846));
#1757=CARTESIAN_POINT('Origin',(4.3645834291413,0.,8.06971153846154));
#1758=CARTESIAN_POINT('',(-1.63541657085871,0.,8.06971153846154));
#1759=CARTESIAN_POINT('',(2.86458342914129,0.,8.06971153846154));
#1760=CARTESIAN_POINT('',(-1.63541657085871,5.,8.06971153846154));
#1761=CARTESIAN_POINT('',(-1.63541657085871,0.,8.06971153846154));
#1762=CARTESIAN_POINT('',(4.3645834291413,5.,8.06971153846154));
#1763=CARTESIAN_POINT('Origin',(-1.63541657085871,0.,-12.9302884615385));
#1764=CARTESIAN_POINT('',(-1.63541657085871,0.,-12.9302884615385));
#1765=CARTESIAN_POINT('',(-0.135416570858709,0.,-12.9302884615385));
#1766=CARTESIAN_POINT('',(-1.63541657085871,5.,-12.9302884615385));
#1767=CARTESIAN_POINT('',(-1.63541657085871,5.,-12.9302884615385));
#1768=CARTESIAN_POINT('',(-1.63541657085871,0.,-12.9302884615385));
#1769=CARTESIAN_POINT('Origin',(-1.63541657085871,0.,8.06971153846154));
#1770=CARTESIAN_POINT('',(-1.63541657085871,0.,2.81971153846154));
#1771=CARTESIAN_POINT('',(-1.63541657085871,5.,8.06971153846154));
#1772=CARTESIAN_POINT('Origin',(1.36458342914129,5.,-2.43028846153846));
#1773=CARTESIAN_POINT('',(5.3645834291413,5.,9.06971153846154));
#1774=CARTESIAN_POINT('',(5.36458342914129,5.,-13.9302884615385));
#1775=CARTESIAN_POINT('',(5.3645834291413,5.,9.06971153846154));
#1776=CARTESIAN_POINT('',(-2.63541657085871,5.,-13.9302884615385));
#1777=CARTESIAN_POINT('',(5.36458342914129,5.,-13.9302884615385));
#1778=CARTESIAN_POINT('',(-2.63541657085871,5.,9.06971153846154));
#1779=CARTESIAN_POINT('',(-2.63541657085871,5.,-13.9302884615385));
#1780=CARTESIAN_POINT('',(-2.63541657085871,5.,9.06971153846154));
#1781=CARTESIAN_POINT('Origin',(3.3645834291413,2.9,6.36971153846154));
#1782=CARTESIAN_POINT('',(3.3645834291413,3.1,6.36971153846154));
#1783=CARTESIAN_POINT('',(3.3645834291413,3.1,6.36971153846154));
#1784=CARTESIAN_POINT('',(3.3645834291413,2.9,6.56971153846154));
#1785=CARTESIAN_POINT('Origin',(3.3645834291413,2.9,6.36971153846154));
#1786=CARTESIAN_POINT('',(3.3645834291413,2.9,6.56971153846154));
#1787=CARTESIAN_POINT('Origin',(3.3645834291413,3.1,3.56971153846154));
#1788=CARTESIAN_POINT('',(3.3645834291413,3.1,3.76971153846154));
#1789=CARTESIAN_POINT('',(3.3645834291413,3.1,3.76971153846154));
#1790=CARTESIAN_POINT('',(3.3645834291413,3.1,5.31971153846154));
#1791=CARTESIAN_POINT('Origin',(3.3645834291413,2.9,3.76971153846154));
#1792=CARTESIAN_POINT('',(3.3645834291413,2.9,3.56971153846154));
#1793=CARTESIAN_POINT('',(3.3645834291413,2.9,3.56971153846154));
#1794=CARTESIAN_POINT('Origin',(3.3645834291413,2.9,3.76971153846154));
#1795=CARTESIAN_POINT('Origin',(3.3645834291413,1.1,3.56971153846154));
#1796=CARTESIAN_POINT('',(3.3645834291413,1.3,3.56971153846154));
#1797=CARTESIAN_POINT('',(3.3645834291413,1.3,3.56971153846154));
#1798=CARTESIAN_POINT('',(3.3645834291413,0.55,3.56971153846154));
#1799=CARTESIAN_POINT('Origin',(3.3645834291413,1.3,6.36971153846154));
#1800=CARTESIAN_POINT('',(3.3645834291413,1.3,6.56971153846154));
#1801=CARTESIAN_POINT('',(3.3645834291413,1.3,6.56971153846154));
#1802=CARTESIAN_POINT('',(3.3645834291413,1.1,6.36971153846154));
#1803=CARTESIAN_POINT('Origin',(3.3645834291413,1.3,6.36971153846154));
#1804=CARTESIAN_POINT('',(3.3645834291413,1.1,6.36971153846154));
#1805=CARTESIAN_POINT('Origin',(3.3645834291413,3.1,6.56971153846154));
#1806=CARTESIAN_POINT('',(3.3645834291413,1.55,6.56971153846154));
#1807=CARTESIAN_POINT('Origin',(3.3645834291413,1.3,3.76971153846154));
#1808=CARTESIAN_POINT('',(3.3645834291413,1.1,3.76971153846154));
#1809=CARTESIAN_POINT('',(3.3645834291413,1.1,3.76971153846154));
#1810=CARTESIAN_POINT('Origin',(3.3645834291413,1.3,3.76971153846154));
#1811=CARTESIAN_POINT('Origin',(3.3645834291413,1.1,6.56971153846154));
#1812=CARTESIAN_POINT('',(3.3645834291413,1.1,6.81971153846154));
#1813=CARTESIAN_POINT('Origin',(1.36458342914129,0.6,5.06971153846154));
#1814=CARTESIAN_POINT('',(3.3645834291413,0.6,7.06971153846154));
#1815=CARTESIAN_POINT('',(3.3645834291413,0.6,3.06971153846154));
#1816=CARTESIAN_POINT('',(3.3645834291413,0.6,6.06971153846154));
#1817=CARTESIAN_POINT('',(-0.635416570858707,0.6,7.06971153846154));
#1818=CARTESIAN_POINT('',(0.364583429141294,0.6,7.06971153846154));
#1819=CARTESIAN_POINT('',(-0.635416570858707,0.6,3.06971153846154));
#1820=CARTESIAN_POINT('',(-0.635416570858707,0.6,4.06971153846154));
#1821=CARTESIAN_POINT('',(2.36458342914129,0.6,3.06971153846154));
#1822=CARTESIAN_POINT('Origin',(-0.635416570858707,0.,7.06971153846154));
#1823=CARTESIAN_POINT('',(3.3645834291413,3.6,7.06971153846154));
#1824=CARTESIAN_POINT('',(3.3645834291413,0.,7.06971153846154));
#1825=CARTESIAN_POINT('',(-0.635416570858707,3.6,7.06971153846154));
#1826=CARTESIAN_POINT('',(-0.635416570858707,3.6,7.06971153846154));
#1827=CARTESIAN_POINT('',(-0.635416570858707,0.,7.06971153846154));
#1828=CARTESIAN_POINT('Origin',(3.3645834291413,0.,7.06971153846154));
#1829=CARTESIAN_POINT('',(3.3645834291413,3.6,3.06971153846154));
#1830=CARTESIAN_POINT('',(3.3645834291413,0.,3.06971153846154));
#1831=CARTESIAN_POINT('',(3.3645834291413,3.6,7.06971153846154));
#1832=CARTESIAN_POINT('Origin',(-0.635416570858707,0.,3.06971153846154));
#1833=CARTESIAN_POINT('',(-0.635416570858707,3.6,3.06971153846154));
#1834=CARTESIAN_POINT('',(-0.635416570858707,3.6,3.06971153846154));
#1835=CARTESIAN_POINT('',(-0.635416570858707,0.,3.06971153846154));
#1836=CARTESIAN_POINT('Origin',(3.3645834291413,0.,3.06971153846154));
#1837=CARTESIAN_POINT('',(3.3645834291413,3.6,3.06971153846154));
#1838=CARTESIAN_POINT('Origin',(1.36458342914129,3.6,5.06971153846154));
#1839=CARTESIAN_POINT('Origin',(3.36458342914129,2.6,1.36971153846154));
#1840=CARTESIAN_POINT('',(3.3645834291413,2.8,1.36971153846154));
#1841=CARTESIAN_POINT('',(3.36458342914129,2.8,1.36971153846154));
#1842=CARTESIAN_POINT('',(3.3645834291413,2.6,1.56971153846154));
#1843=CARTESIAN_POINT('Origin',(3.3645834291413,2.6,1.36971153846154));
#1844=CARTESIAN_POINT('',(3.36458342914129,2.6,1.56971153846154));
#1845=CARTESIAN_POINT('Origin',(3.36458342914129,2.8,-1.33028846153846));
#1846=CARTESIAN_POINT('',(3.3645834291413,2.8,-1.13028846153846));
#1847=CARTESIAN_POINT('',(3.36458342914129,2.8,-1.13028846153846));
#1848=CARTESIAN_POINT('',(3.3645834291413,2.8,0.36971153846154));
#1849=CARTESIAN_POINT('Origin',(3.36458342914129,2.6,-1.13028846153846));
#1850=CARTESIAN_POINT('',(3.3645834291413,2.6,-1.33028846153846));
#1851=CARTESIAN_POINT('',(3.36458342914129,2.6,-1.33028846153846));
#1852=CARTESIAN_POINT('Origin',(3.3645834291413,2.6,-1.13028846153846));
#1853=CARTESIAN_POINT('Origin',(3.36458342914129,0.9,-1.33028846153846));
#1854=CARTESIAN_POINT('',(3.3645834291413,1.1,-1.33028846153846));
#1855=CARTESIAN_POINT('',(3.36458342914129,1.1,-1.33028846153846));
#1856=CARTESIAN_POINT('',(3.3645834291413,0.45,-1.33028846153846));
#1857=CARTESIAN_POINT('Origin',(3.3645834291413,1.1,1.36971153846154));
#1858=CARTESIAN_POINT('',(3.3645834291413,1.1,1.56971153846154));
#1859=CARTESIAN_POINT('',(3.3645834291413,1.1,1.56971153846154));
#1860=CARTESIAN_POINT('',(3.3645834291413,0.9,1.36971153846154));
#1861=CARTESIAN_POINT('Origin',(3.3645834291413,1.1,1.36971153846154));
#1862=CARTESIAN_POINT('',(3.3645834291413,0.9,1.36971153846154));
#1863=CARTESIAN_POINT('Origin',(3.3645834291413,2.8,1.56971153846154));
#1864=CARTESIAN_POINT('',(3.3645834291413,1.4,1.56971153846154));
#1865=CARTESIAN_POINT('Origin',(3.36458342914129,1.1,-1.13028846153846));
#1866=CARTESIAN_POINT('',(3.3645834291413,0.9,-1.13028846153846));
#1867=CARTESIAN_POINT('',(3.36458342914129,0.9,-1.13028846153846));
#1868=CARTESIAN_POINT('Origin',(3.3645834291413,1.1,-1.13028846153846));
#1869=CARTESIAN_POINT('Origin',(3.3645834291413,0.9,1.56971153846154));
#1870=CARTESIAN_POINT('',(3.3645834291413,0.9,1.81971153846154));
#1871=CARTESIAN_POINT('Origin',(1.4145834291413,0.4,0.11971153846154));
#1872=CARTESIAN_POINT('',(3.3645834291413,0.4,2.06971153846154));
#1873=CARTESIAN_POINT('',(3.3645834291413,0.4,-1.83028846153846));
#1874=CARTESIAN_POINT('',(3.3645834291413,0.4,1.09471153846154));
#1875=CARTESIAN_POINT('',(-0.535416570858703,0.4,2.06971153846154));
#1876=CARTESIAN_POINT('',(0.439583429141297,0.4,2.06971153846154));
#1877=CARTESIAN_POINT('',(-0.535416570858704,0.4,-1.83028846153846));
#1878=CARTESIAN_POINT('',(-0.535416570858704,0.4,-0.855288461538459));
#1879=CARTESIAN_POINT('',(2.3895834291413,0.4,-1.83028846153846));
#1880=CARTESIAN_POINT('Origin',(-0.535416570858703,0.,2.06971153846154));
#1881=CARTESIAN_POINT('',(3.3645834291413,3.3,2.06971153846154));
#1882=CARTESIAN_POINT('',(3.3645834291413,0.,2.06971153846154));
#1883=CARTESIAN_POINT('',(-0.535416570858703,3.3,2.06971153846154));
#1884=CARTESIAN_POINT('',(-0.535416570858703,3.3,2.06971153846154));
#1885=CARTESIAN_POINT('',(-0.535416570858703,0.,2.06971153846154));
#1886=CARTESIAN_POINT('Origin',(3.3645834291413,0.,2.06971153846154));
#1887=CARTESIAN_POINT('',(3.3645834291413,3.3,-1.83028846153846));
#1888=CARTESIAN_POINT('',(3.3645834291413,0.,-1.83028846153846));
#1889=CARTESIAN_POINT('',(3.3645834291413,3.3,2.06971153846154));
#1890=CARTESIAN_POINT('Origin',(-0.535416570858704,0.,-1.83028846153846));
#1891=CARTESIAN_POINT('',(-0.535416570858704,3.3,-1.83028846153846));
#1892=CARTESIAN_POINT('',(-0.535416570858704,3.3,-1.83028846153846));
#1893=CARTESIAN_POINT('',(-0.535416570858704,0.,-1.83028846153846));
#1894=CARTESIAN_POINT('Origin',(3.3645834291413,0.,-1.83028846153846));
#1895=CARTESIAN_POINT('',(3.3645834291413,3.3,-1.83028846153846));
#1896=CARTESIAN_POINT('Origin',(1.4145834291413,3.3,0.11971153846154));
#1897=CARTESIAN_POINT('Origin',(3.36458342914129,2.9,-3.53028846153846));
#1898=CARTESIAN_POINT('',(3.3645834291413,3.1,-3.53028846153846));
#1899=CARTESIAN_POINT('',(3.36458342914129,3.1,-3.53028846153846));
#1900=CARTESIAN_POINT('',(3.3645834291413,2.9,-3.33028846153846));
#1901=CARTESIAN_POINT('Origin',(3.3645834291413,2.9,-3.53028846153846));
#1902=CARTESIAN_POINT('',(3.36458342914129,2.9,-3.33028846153846));
#1903=CARTESIAN_POINT('Origin',(3.36458342914129,3.1,-6.13028846153846));
#1904=CARTESIAN_POINT('',(3.3645834291413,3.1,-5.93028846153846));
#1905=CARTESIAN_POINT('',(3.36458342914129,3.1,-5.93028846153846));
#1906=CARTESIAN_POINT('',(3.3645834291413,3.1,-4.48028846153846));
#1907=CARTESIAN_POINT('Origin',(3.36458342914129,2.9,-5.93028846153846));
#1908=CARTESIAN_POINT('',(3.3645834291413,2.9,-6.13028846153846));
#1909=CARTESIAN_POINT('',(3.36458342914129,2.9,-6.13028846153846));
#1910=CARTESIAN_POINT('Origin',(3.3645834291413,2.9,-5.93028846153846));
#1911=CARTESIAN_POINT('Origin',(3.36458342914129,1.3,-6.13028846153846));
#1912=CARTESIAN_POINT('',(3.3645834291413,1.5,-6.13028846153846));
#1913=CARTESIAN_POINT('',(3.36458342914129,1.5,-6.13028846153846));
#1914=CARTESIAN_POINT('',(3.3645834291413,0.65,-6.13028846153846));
#1915=CARTESIAN_POINT('Origin',(3.36458342914129,1.5,-3.53028846153846));
#1916=CARTESIAN_POINT('',(3.3645834291413,1.5,-3.33028846153846));
#1917=CARTESIAN_POINT('',(3.36458342914129,1.5,-3.33028846153846));
#1918=CARTESIAN_POINT('',(3.3645834291413,1.3,-3.53028846153846));
#1919=CARTESIAN_POINT('Origin',(3.3645834291413,1.5,-3.53028846153846));
#1920=CARTESIAN_POINT('',(3.36458342914129,1.3,-3.53028846153846));
#1921=CARTESIAN_POINT('Origin',(3.36458342914129,3.1,-3.33028846153846));
#1922=CARTESIAN_POINT('',(3.3645834291413,1.55,-3.33028846153846));
#1923=CARTESIAN_POINT('Origin',(3.36458342914129,1.5,-5.93028846153846));
#1924=CARTESIAN_POINT('',(3.3645834291413,1.3,-5.93028846153846));
#1925=CARTESIAN_POINT('',(3.36458342914129,1.3,-5.93028846153846));
#1926=CARTESIAN_POINT('Origin',(3.3645834291413,1.5,-5.93028846153846));
#1927=CARTESIAN_POINT('Origin',(3.36458342914129,1.3,-3.33028846153846));
#1928=CARTESIAN_POINT('',(3.3645834291413,1.3,-3.08028846153846));
#1929=CARTESIAN_POINT('Origin',(1.4645834291413,0.8,-4.73028846153846));
#1930=CARTESIAN_POINT('',(3.3645834291413,0.8,-2.83028846153846));
#1931=CARTESIAN_POINT('',(3.3645834291413,0.8,-6.63028846153846));
#1932=CARTESIAN_POINT('',(3.3645834291413,0.8,-3.78028846153846));
#1933=CARTESIAN_POINT('',(-0.435416570858702,0.8,-2.83028846153846));
#1934=CARTESIAN_POINT('',(0.514583429141299,0.8,-2.83028846153846));
#1935=CARTESIAN_POINT('',(-0.435416570858703,0.8,-6.63028846153846));
#1936=CARTESIAN_POINT('',(-0.435416570858703,0.8,-5.68028846153846));
#1937=CARTESIAN_POINT('',(2.4145834291413,0.8,-6.63028846153846));
#1938=CARTESIAN_POINT('Origin',(-0.435416570858702,0.,-2.83028846153846));
#1939=CARTESIAN_POINT('',(3.3645834291413,3.6,-2.83028846153846));
#1940=CARTESIAN_POINT('',(3.3645834291413,0.,-2.83028846153846));
#1941=CARTESIAN_POINT('',(-0.435416570858702,3.6,-2.83028846153846));
#1942=CARTESIAN_POINT('',(-0.435416570858702,3.6,-2.83028846153846));
#1943=CARTESIAN_POINT('',(-0.435416570858702,0.,-2.83028846153846));
#1944=CARTESIAN_POINT('Origin',(3.3645834291413,0.,-2.83028846153846));
#1945=CARTESIAN_POINT('',(3.3645834291413,3.6,-6.63028846153846));
#1946=CARTESIAN_POINT('',(3.3645834291413,0.,-6.63028846153846));
#1947=CARTESIAN_POINT('',(3.3645834291413,3.6,-2.83028846153846));
#1948=CARTESIAN_POINT('Origin',(-0.435416570858703,0.,-6.63028846153846));
#1949=CARTESIAN_POINT('',(-0.435416570858703,3.6,-6.63028846153846));
#1950=CARTESIAN_POINT('',(-0.435416570858703,3.6,-6.63028846153846));
#1951=CARTESIAN_POINT('',(-0.435416570858703,0.,-6.63028846153846));
#1952=CARTESIAN_POINT('Origin',(3.3645834291413,0.,-6.63028846153846));
#1953=CARTESIAN_POINT('',(3.3645834291413,3.6,-6.63028846153846));
#1954=CARTESIAN_POINT('Origin',(1.4645834291413,3.6,-4.73028846153846));
#1955=CARTESIAN_POINT('Origin',(3.36458342914129,2.8,-8.33028846153846));
#1956=CARTESIAN_POINT('',(3.3645834291413,3.,-8.33028846153846));
#1957=CARTESIAN_POINT('',(3.36458342914129,3.,-8.33028846153846));
#1958=CARTESIAN_POINT('',(3.3645834291413,2.8,-8.13028846153846));
#1959=CARTESIAN_POINT('Origin',(3.3645834291413,2.8,-8.33028846153846));
#1960=CARTESIAN_POINT('',(3.36458342914129,2.8,-8.13028846153846));
#1961=CARTESIAN_POINT('Origin',(3.36458342914129,3.,-10.6302884615385));
#1962=CARTESIAN_POINT('',(3.3645834291413,3.,-10.4302884615385));
#1963=CARTESIAN_POINT('',(3.36458342914129,3.,-10.4302884615385));
#1964=CARTESIAN_POINT('',(3.3645834291413,3.,-9.13028846153846));
#1965=CARTESIAN_POINT('Origin',(3.36458342914129,2.8,-10.4302884615385));
#1966=CARTESIAN_POINT('',(3.3645834291413,2.8,-10.6302884615385));
#1967=CARTESIAN_POINT('',(3.36458342914129,2.8,-10.6302884615385));
#1968=CARTESIAN_POINT('Origin',(3.3645834291413,2.8,-10.4302884615385));
#1969=CARTESIAN_POINT('Origin',(3.36458342914129,1.5,-10.6302884615385));
#1970=CARTESIAN_POINT('',(3.3645834291413,1.7,-10.6302884615385));
#1971=CARTESIAN_POINT('',(3.36458342914129,1.7,-10.6302884615385));
#1972=CARTESIAN_POINT('',(3.3645834291413,0.75,-10.6302884615385));
#1973=CARTESIAN_POINT('Origin',(3.36458342914129,1.7,-8.33028846153846));
#1974=CARTESIAN_POINT('',(3.3645834291413,1.7,-8.13028846153846));
#1975=CARTESIAN_POINT('',(3.36458342914129,1.7,-8.13028846153846));
#1976=CARTESIAN_POINT('',(3.3645834291413,1.5,-8.33028846153846));
#1977=CARTESIAN_POINT('Origin',(3.3645834291413,1.7,-8.33028846153846));
#1978=CARTESIAN_POINT('',(3.36458342914129,1.5,-8.33028846153846));
#1979=CARTESIAN_POINT('Origin',(3.36458342914129,3.,-8.13028846153846));
#1980=CARTESIAN_POINT('',(3.3645834291413,1.5,-8.13028846153846));
#1981=CARTESIAN_POINT('Origin',(3.36458342914129,1.7,-10.4302884615385));
#1982=CARTESIAN_POINT('',(3.3645834291413,1.5,-10.4302884615385));
#1983=CARTESIAN_POINT('',(3.36458342914129,1.5,-10.4302884615385));
#1984=CARTESIAN_POINT('Origin',(3.3645834291413,1.7,-10.4302884615385));
#1985=CARTESIAN_POINT('Origin',(3.36458342914129,1.5,-8.13028846153846));
#1986=CARTESIAN_POINT('',(3.3645834291413,1.5,-7.88028846153846));
#1987=CARTESIAN_POINT('Origin',(1.6145834291413,1.,-9.38028846153846));
#1988=CARTESIAN_POINT('',(3.3645834291413,1.,-7.63028846153846));
#1989=CARTESIAN_POINT('',(3.3645834291413,1.,-11.1302884615385));
#1990=CARTESIAN_POINT('',(3.3645834291413,1.,-8.50528846153846));
#1991=CARTESIAN_POINT('',(-0.135416570858702,1.,-7.63028846153846));
#1992=CARTESIAN_POINT('',(0.739583429141298,1.,-7.63028846153846));
#1993=CARTESIAN_POINT('',(-0.135416570858704,1.,-11.1302884615385));
#1994=CARTESIAN_POINT('',(-0.135416570858703,1.,-10.2552884615385));
#1995=CARTESIAN_POINT('',(2.4895834291413,1.,-11.1302884615385));
#1996=CARTESIAN_POINT('Origin',(-0.135416570858702,0.,-7.63028846153846));
#1997=CARTESIAN_POINT('',(3.3645834291413,3.5,-7.63028846153846));
#1998=CARTESIAN_POINT('',(3.3645834291413,0.,-7.63028846153846));
#1999=CARTESIAN_POINT('',(-0.135416570858702,3.5,-7.63028846153846));
#2000=CARTESIAN_POINT('',(-0.135416570858702,3.5,-7.63028846153846));
#2001=CARTESIAN_POINT('',(-0.135416570858702,0.,-7.63028846153846));
#2002=CARTESIAN_POINT('Origin',(3.3645834291413,0.,-7.63028846153846));
#2003=CARTESIAN_POINT('',(3.3645834291413,3.5,-11.1302884615385));
#2004=CARTESIAN_POINT('',(3.3645834291413,0.,-11.1302884615385));
#2005=CARTESIAN_POINT('',(3.3645834291413,3.5,-7.63028846153846));
#2006=CARTESIAN_POINT('Origin',(-0.135416570858704,0.,-11.1302884615385));
#2007=CARTESIAN_POINT('',(-0.135416570858704,3.5,-11.1302884615385));
#2008=CARTESIAN_POINT('',(-0.135416570858704,3.5,-11.1302884615385));
#2009=CARTESIAN_POINT('',(-0.135416570858704,0.,-11.1302884615385));
#2010=CARTESIAN_POINT('Origin',(3.3645834291413,0.,-11.1302884615385));
#2011=CARTESIAN_POINT('',(3.3645834291413,3.5,-11.1302884615385));
#2012=CARTESIAN_POINT('Origin',(1.6145834291413,3.5,-9.38028846153846));
#2013=CARTESIAN_POINT('Origin',(-2.63541657085871,0.,-13.9302884615385));
#2014=CARTESIAN_POINT('',(5.36458342914129,-1.,-13.9302884615385));
#2015=CARTESIAN_POINT('',(5.36458342914129,0.,-13.9302884615385));
#2016=CARTESIAN_POINT('',(-2.63541657085871,-1.,-13.9302884615385));
#2017=CARTESIAN_POINT('',(5.36458342914129,-1.,-13.9302884615385));
#2018=CARTESIAN_POINT('',(-2.63541657085871,0.,-13.9302884615385));
#2019=CARTESIAN_POINT('Origin',(-2.63541657085871,0.,9.06971153846154));
#2020=CARTESIAN_POINT('',(-2.63541657085871,-1.,9.06971153846154));
#2021=CARTESIAN_POINT('',(-2.63541657085871,-1.,-13.9302884615385));
#2022=CARTESIAN_POINT('',(-2.63541657085871,0.,9.06971153846154));
#2023=CARTESIAN_POINT('Origin',(5.3645834291413,0.,9.06971153846154));
#2024=CARTESIAN_POINT('',(5.3645834291413,-1.,9.06971153846154));
#2025=CARTESIAN_POINT('',(-2.63541657085871,-1.,9.06971153846154));
#2026=CARTESIAN_POINT('',(5.3645834291413,0.,9.06971153846154));
#2027=CARTESIAN_POINT('Origin',(5.36458342914129,0.,-13.9302884615385));
#2028=CARTESIAN_POINT('',(5.3645834291413,-1.,9.06971153846154));
#2029=CARTESIAN_POINT('Origin',(1.36458342914129,0.,-2.43028846153846));
#2030=CARTESIAN_POINT('Origin',(1.36458342914129,-1.,-2.43028846153846));
#2031=UNCERTAINTY_MEASURE_WITH_UNIT(LENGTH_MEASURE(0.01),#2035,
'DISTANCE_ACCURACY_VALUE',
'Maximum model space distance between geometric entities at asserted c
onnectivities');
#2032=UNCERTAINTY_MEASURE_WITH_UNIT(LENGTH_MEASURE(0.01),#2035,
'DISTANCE_ACCURACY_VALUE',
'Maximum model space distance between geometric entities at asserted c
onnectivities');
#2033=(
GEOMETRIC_REPRESENTATION_CONTEXT(3)
GLOBAL_UNCERTAINTY_ASSIGNED_CONTEXT((#2031))
GLOBAL_UNIT_ASSIGNED_CONTEXT((#2035,#2037,#2038))
REPRESENTATION_CONTEXT('','3D')
);
#2034=(
GEOMETRIC_REPRESENTATION_CONTEXT(3)
GLOBAL_UNCERTAINTY_ASSIGNED_CONTEXT((#2032))
GLOBAL_UNIT_ASSIGNED_CONTEXT((#2035,#2037,#2038))
REPRESENTATION_CONTEXT('','3D')
);
#2035=(
LENGTH_UNIT()
NAMED_UNIT(*)
SI_UNIT(.MILLI.,.METRE.)
);
#2036=(
LENGTH_UNIT()
NAMED_UNIT(*)
SI_UNIT(.CENTI.,.METRE.)
);
#2037=(
NAMED_UNIT(*)
PLANE_ANGLE_UNIT()
SI_UNIT($,.RADIAN.)
);
#2038=(
NAMED_UNIT(*)
SI_UNIT($,.STERADIAN.)
SOLID_ANGLE_UNIT()
);
#2039=SHAPE_DEFINITION_REPRESENTATION(#2040,#2041);
#2040=PRODUCT_DEFINITION_SHAPE('',$,#2043);
#2041=SHAPE_REPRESENTATION('',(#1247),#2033);
#2042=PRODUCT_DEFINITION_CONTEXT('part definition',#2047,'design');
#2043=PRODUCT_DEFINITION('Mold','Mold',#2044,#2042);
#2044=PRODUCT_DEFINITION_FORMATION('',$,#2049);
#2045=PRODUCT_RELATED_PRODUCT_CATEGORY('Mold','Mold',(#2049));
#2046=APPLICATION_PROTOCOL_DEFINITION('international standard',
'automotive_design',2009,#2047);
#2047=APPLICATION_CONTEXT(
'Core Data for Automotive Mechanical Design Process');
#2048=PRODUCT_CONTEXT('part definition',#2047,'mechanical');
#2049=PRODUCT('Mold','Mold',$,(#2048));
#2050=PRESENTATION_STYLE_ASSIGNMENT((#2055));
#2051=PRESENTATION_STYLE_ASSIGNMENT((#2056));
#2052=PRESENTATION_STYLE_ASSIGNMENT((#2057));
#2053=PRESENTATION_STYLE_ASSIGNMENT((#2058));
#2054=PRESENTATION_STYLE_ASSIGNMENT((#2059));
#2055=SURFACE_STYLE_USAGE(.BOTH.,#2070);
#2056=SURFACE_STYLE_USAGE(.BOTH.,#2071);
#2057=SURFACE_STYLE_USAGE(.BOTH.,#2072);
#2058=SURFACE_STYLE_USAGE(.BOTH.,#2073);
#2059=SURFACE_STYLE_USAGE(.BOTH.,#2074);
#2060=SURFACE_STYLE_RENDERING_WITH_PROPERTIES($,#2090,(#2065));
#2061=SURFACE_STYLE_RENDERING_WITH_PROPERTIES($,#2091,(#2066));
#2062=SURFACE_STYLE_RENDERING_WITH_PROPERTIES($,#2092,(#2067));
#2063=SURFACE_STYLE_RENDERING_WITH_PROPERTIES($,#2093,(#2068));
#2064=SURFACE_STYLE_RENDERING_WITH_PROPERTIES($,#2094,(#2069));
#2065=SURFACE_STYLE_TRANSPARENT(0.);
#2066=SURFACE_STYLE_TRANSPARENT(0.);
#2067=SURFACE_STYLE_TRANSPARENT(0.);
#2068=SURFACE_STYLE_TRANSPARENT(0.);
#2069=SURFACE_STYLE_TRANSPARENT(0.);
#2070=SURFACE_SIDE_STYLE('',(#2075,#2060));
#2071=SURFACE_SIDE_STYLE('',(#2076,#2061));
#2072=SURFACE_SIDE_STYLE('',(#2077,#2062));
#2073=SURFACE_SIDE_STYLE('',(#2078,#2063));
#2074=SURFACE_SIDE_STYLE('',(#2079,#2064));
#2075=SURFACE_STYLE_FILL_AREA(#2080);
#2076=SURFACE_STYLE_FILL_AREA(#2081);
#2077=SURFACE_STYLE_FILL_AREA(#2082);
#2078=SURFACE_STYLE_FILL_AREA(#2083);
#2079=SURFACE_STYLE_FILL_AREA(#2084);
#2080=FILL_AREA_STYLE('',(#2085));
#2081=FILL_AREA_STYLE('',(#2086));
#2082=FILL_AREA_STYLE('',(#2087));
#2083=FILL_AREA_STYLE('',(#2088));
#2084=FILL_AREA_STYLE('',(#2089));
#2085=FILL_AREA_STYLE_COLOUR('',#2090);
#2086=FILL_AREA_STYLE_COLOUR('',#2091);
#2087=FILL_AREA_STYLE_COLOUR('',#2092);
#2088=FILL_AREA_STYLE_COLOUR('',#2093);
#2089=FILL_AREA_STYLE_COLOUR('',#2094);
#2090=COLOUR_RGB('',0.749019607843137,0.749019607843137,0.749019607843137);
#2091=COLOUR_RGB('',0.0509803921568627,1.,0.);
#2092=COLOUR_RGB('',0.,0.635294117647059,1.);
#2093=COLOUR_RGB('',1.,0.933333333333333,0.);
#2094=COLOUR_RGB('',0.956862745098039,0.156862745098039,0.156862745098039);
ENDSEC;
END-ISO-10303-21;
